<svg xmlns="http://www.w3.org/2000/svg" class="graphdiagram" viewBox="-3091.778897328144 -3067.886044011836 4592.445369579818 2051.0530752159866"><g class="layer relationships"><g class="related-pair"><g class="relationship" transform="translate(-1625.0654907226562,-1778.0421142578125) rotate(-18.032932807831635)"><path class="relationship" d="M 124.4889723312753 4 L 728.4133279674297 4 L 728.4133279674297 16 L 760.4133279674297 0 L 728.4133279674297 -16 L 728.4133279674297 -4 L 124.4889723312753 -4 Z" fill="rgb(0, 0, 0)" stroke="rgb(51, 51, 51)" stroke-width="0px"/></g></g><g class="related-pair"><g class="relationship" transform="translate(-798.985538482666,-2046.976806640625) rotate(-53.53204101349936)"><path class="relationship" d="M 108.3409274235079 4 L 734.0372046261555 4 L 734.0372046261555 16 L 766.0372046261555 0 L 734.0372046261555 -16 L 734.0372046261555 -4 L 108.3409274235079 -4 Z" fill="rgb(0, 0, 0)" stroke="rgb(51, 51, 51)" stroke-width="0px"/><text class="type" text-anchor="middle" baseline-shift="30%" alignment-baseline="alphabetic" x="421.18906602483173" y="0" font-size="50px" font-family="&quot;Gill Sans&quot;, &quot;Gill Sans MT&quot;, Calibri, sans-serif">takes</text></g></g><g class="related-pair"><g class="relationship" transform="translate(532.7003955841064,-2218.6749267578125) rotate(172.65322067095565)"><path class="relationship" d="M 239.06180623205915 4 L 1202.3681518051492 4 L 1202.3681518051492 16 L 1234.3681518051492 0 L 1202.3681518051492 -16 L 1202.3681518051492 -4 L 239.06180623205915 -4 Z" fill="rgb(0, 0, 0)" stroke="rgb(51, 51, 51)" stroke-width="0px"/><text class="type" text-anchor="middle" baseline-shift="30%" alignment-baseline="alphabetic" transform="rotate(180)" x="-720.7149790186043" y="0" font-size="50px" font-family="&quot;Gill Sans&quot;, &quot;Gill Sans MT&quot;, Calibri, sans-serif">takes_care_of</text></g></g><g class="related-pair"><g class="relationship" transform="translate(-7.497307300567627,-1442.863037109375) rotate(-142.64684149176358)"><path class="relationship" d="M 199.5261633135253 4 L 855.3533362121842 4 L 855.3533362121842 16 L 887.3533362121842 0 L 855.3533362121842 -16 L 855.3533362121842 -4 L 199.5261633135253 -4 Z" fill="rgb(0, 0, 0)" stroke="rgb(51, 51, 51)" stroke-width="0px"/><text class="type" text-anchor="middle" baseline-shift="30%" alignment-baseline="alphabetic" transform="rotate(180)" x="-527.4397497628547" y="0" font-size="50px" font-family="&quot;Gill Sans&quot;, &quot;Gill Sans MT&quot;, Calibri, sans-serif">lab_results_of</text></g></g><g class="related-pair"><g class="relationship" transform="translate(-1625.0654907226562,-1778.0421142578125) rotate(-161.44774946726764)"><path class="relationship" d="M 124.4889723312753 4 L 428.5252062154554 4 L 428.5252062154554 16 L 460.5252062154554 0 L 428.5252062154554 -16 L 428.5252062154554 -4 L 124.4889723312753 -4 Z" fill="rgb(0, 0, 0)" stroke="rgb(51, 51, 51)" stroke-width="0px"/></g></g><g class="related-pair"><g class="relationship" transform="translate(-1625.0654907226562,-1778.0421142578125) rotate(153.22485088348182)"><path class="relationship" d="M 124.4889723312753 4 L 773.8792389922601 4 L 773.8792389922601 16 L 805.8792389922601 0 L 773.8792389922601 -16 L 773.8792389922601 -4 L 124.4889723312753 -4 Z" fill="rgb(0, 0, 0)" stroke="rgb(51, 51, 51)" stroke-width="0px"/></g></g><g class="related-pair"><g class="relationship" transform="translate(-1625.0654907226562,-1778.0421142578125) rotate(80.89075529709372)"><path class="relationship" d="M 124.4889723312753 4 L 308.960041414644 4 L 308.960041414644 16 L 340.960041414644 0 L 308.960041414644 -16 L 308.960041414644 -4 L 124.4889723312753 -4 Z" fill="rgb(0, 0, 0)" stroke="rgb(51, 51, 51)" stroke-width="0px"/></g></g><g class="related-pair"><g class="relationship" transform="translate(532.7003955841064,-2218.6749267578125) rotate(-144.44023918461545)"><path class="relationship" d="M 239.06180623205915 4 L 788.7966457911789 4 L 788.7966457911789 16 L 820.7966457911789 0 L 788.7966457911789 -16 L 788.7966457911789 -4 L 239.06180623205915 -4 Z" fill="rgb(0, 0, 0)" stroke="rgb(51, 51, 51)" stroke-width="0px"/><text class="type" text-anchor="middle" baseline-shift="30%" alignment-baseline="alphabetic" transform="rotate(180)" x="-513.929226011619" y="0" font-size="50px" font-family="&quot;Gill Sans&quot;, &quot;Gill Sans MT&quot;, Calibri, sans-serif">prescribes</text></g></g><g class="related-pair"><g class="relationship" transform="translate(532.7003955841064,-2218.6749267578125) rotate(124.84948887252953)"><path class="relationship" d="M 239.06180623205915 4 L 713.8296672189562 4 L 713.8296672189562 16 L 745.8296672189562 0 L 713.8296672189562 -16 L 713.8296672189562 -4 L 239.06180623205915 -4 Z" fill="rgb(0, 0, 0)" stroke="rgb(51, 51, 51)" stroke-width="0px"/><text class="type" text-anchor="middle" baseline-shift="30%" alignment-baseline="alphabetic" transform="rotate(180)" x="-476.4457367255077" y="0" font-size="50px" font-family="&quot;Gill Sans&quot;, &quot;Gill Sans MT&quot;, Calibri, sans-serif">orders</text></g></g><g class="related-pair"><g class="relationship" transform="translate(-798.985538482666,-2046.976806640625) rotate(-122.62263827200064)"><path class="relationship" d="M 108.3409274235079 4 L 578.901227300789 4 L 578.901227300789 16 L 610.901227300789 0 L 578.901227300789 -16 L 578.901227300789 -4 L 108.3409274235079 -4 Z" fill="rgb(0, 0, 0)" stroke="rgb(51, 51, 51)" stroke-width="0px"/></g></g><g class="related-pair"><g class="relationship" transform="translate(-798.985538482666,-2046.976806640625) rotate(-166.22275487422158)"><path class="relationship" d="M 108.3409274235079 4 L 546.8628373245405 4 L 546.8628373245405 16 L 578.8628373245405 0 L 546.8628373245405 -16 L 546.8628373245405 -4 L 108.3409274235079 -4 Z" fill="rgb(0, 0, 0)" stroke="rgb(51, 51, 51)" stroke-width="0px"/></g></g><g class="related-pair"><g class="relationship" transform="translate(-255.5874786376953,-2782.1966552734375) rotate(-10.83173532199159)"><path class="relationship" d="M 148.20000598547455 4 L 445.03655948832164 4 L 445.03655948832164 16 L 477.03655948832164 0 L 445.03655948832164 -16 L 445.03655948832164 -4 L 148.20000598547455 -4 Z" fill="rgb(0, 0, 0)" stroke="rgb(51, 51, 51)" stroke-width="0px"/></g></g><g class="related-pair"><g class="relationship" transform="translate(-1183.98046875,-2648.452880859375) rotate(-164.96755961107613)"><path class="relationship" d="M 103.23780971451711 4 L 490.17558780357433 4 L 490.17558780357433 16 L 522.1755878035743 0 L 490.17558780357433 -16 L 490.17558780357433 -4 L 103.23780971451711 -4 Z" fill="rgb(0, 0, 0)" stroke="rgb(51, 51, 51)" stroke-width="0px"/></g></g><g class="related-pair"><g class="relationship" transform="translate(-1499.2154541015625,-2218.6749267578125) rotate(-120.73771250713881)"><path class="relationship" d="M 142.11024066063848 4 L 499.09119281981657 4 L 499.09119281981657 16 L 531.0911928198166 0 L 499.09119281981657 -16 L 499.09119281981657 -4 L 142.11024066063848 -4 Z" fill="rgb(0, 0, 0)" stroke="rgb(51, 51, 51)" stroke-width="0px"/></g></g><g class="related-pair"><g class="relationship" transform="translate(-1183.98046875,-2648.452880859375) rotate(-90)"><path class="relationship" d="M 103.23780971451711 4 L 204.69677753509166 4 L 204.69677753509166 16 L 236.69677753509166 0 L 204.69677753509166 -16 L 204.69677753509166 -4 L 103.23780971451711 -4 Z" fill="rgb(0, 0, 0)" stroke="rgb(51, 51, 51)" stroke-width="0px"/></g></g></g><g class="layer nodes"><circle class="node node-id-0" r="109.49287733127531" fill="rgb(255, 255, 255)" stroke="rgb(0, 0, 0)" stroke-width="7.99219px" cx="-1625.0654907226562" cy="-1778.0421142578125"/><circle class="node node-id-1" r="93.34483242350791" fill="rgb(255, 255, 255)" stroke="rgb(0, 0, 0)" stroke-width="7.99219px" cx="-798.985538482666" cy="-2046.976806640625"/><circle class="node node-id-2" r="133.20391098547455" fill="rgb(255, 255, 255)" stroke="rgb(0, 0, 0)" stroke-width="7.99219px" cx="-255.5874786376953" cy="-2782.1966552734375"/><circle class="node node-id-3" r="184.5300683135253" fill="rgb(255, 255, 255)" stroke="rgb(0, 0, 0)" stroke-width="7.99219px" cx="-7.497307300567627" cy="-1442.863037109375"/><circle class="node node-id-4" r="224.06571123205916" fill="rgb(255, 255, 255)" stroke="rgb(0, 0, 0)" stroke-width="7.99219px" cx="532.7003955841064" cy="-2218.6749267578125"/><circle class="node node-id-5" r="88.24171471451712" fill="rgb(255, 255, 255)" stroke="rgb(0, 0, 0)" stroke-width="7.99219px" cx="-1183.98046875" cy="-2648.452880859375"/><circle class="node node-id-6" r="127.11414566063847" fill="rgb(255, 255, 255)" stroke="rgb(0, 0, 0)" stroke-width="7.99219px" cx="-1499.2154541015625" cy="-2218.6749267578125"/><circle class="node node-id-7" r="142.59574350971403" fill="rgb(255, 255, 255)" stroke="rgb(0, 0, 0)" stroke-width="7.99219px" cx="-2211.0614013671875" cy="-1974.7080078125"/><circle class="node node-id-8" r="121.73033728326035" fill="rgb(255, 255, 255)" stroke="rgb(0, 0, 0)" stroke-width="7.99219px" cx="-2466.606201171875" cy="-1353.4073486328125"/><circle class="node node-id-9" r="153.52929019355736" fill="rgb(255, 255, 255)" stroke="rgb(0, 0, 0)" stroke-width="7.99219px" cx="-1544.4050903320312" cy="-1274.982177734375"/><circle class="node node-id-10" r="129.14603568880082" fill="rgb(255, 255, 255)" stroke="rgb(0, 0, 0)" stroke-width="7.99219px" cx="354.52386474609375" cy="-2898.931884765625"/><circle class="node node-id-11" r="166.17706402859267" fill="rgb(255, 255, 255)" stroke="rgb(0, 0, 0)" stroke-width="7.99219px" cx="-1863.260009765625" cy="-2830.8775634765625"/><circle class="node node-id-12" r="75.12719582428336" fill="rgb(255, 255, 255)" stroke="rgb(0, 0, 0)" stroke-width="7.99219px" cx="-1183.98046875" cy="-2975.27294921875"/><g class="caption"><text class="caption node" text-anchor="middle" alignment-baseline="central" x="-1625.0654907226562" y="-1778.0421142578125" fill="rgb(51, 51, 51)" font-size="50px" font-family="&quot;Gill Sans&quot;, &quot;Gill Sans MT&quot;, Calibri, sans-serif">REDCap</text></g><g class="caption"><text class="caption node" text-anchor="middle" alignment-baseline="central" x="-798.985538482666" y="-2046.976806640625" fill="rgb(51, 51, 51)" font-size="50px" font-family="&quot;Gill Sans&quot;, &quot;Gill Sans MT&quot;, Calibri, sans-serif">Patient</text></g><g class="caption"><text class="caption node" text-anchor="middle" alignment-baseline="central" x="-255.5874786376953" y="-2782.1966552734375" fill="rgb(51, 51, 51)" font-size="50px" font-family="&quot;Gill Sans&quot;, &quot;Gill Sans MT&quot;, Calibri, sans-serif">Medication</text></g><g class="caption"><text class="caption node" text-anchor="middle" alignment-baseline="central" x="-7.497307300567627" y="-1442.863037109375" fill="rgb(51, 51, 51)" font-size="50px" font-family="&quot;Gill Sans&quot;, &quot;Gill Sans MT&quot;, Calibri, sans-serif">MicoTestResults</text></g><g class="caption"><text class="caption node" text-anchor="middle" alignment-baseline="central" x="532.7003955841064" y="-2218.6749267578125" fill="rgb(51, 51, 51)" font-size="50px" font-family="&quot;Gill Sans&quot;, &quot;Gill Sans MT&quot;, Calibri, sans-serif">HealthCareProvider</text></g><g class="caption"><text class="caption node" text-anchor="middle" alignment-baseline="central" x="-1183.98046875" y="-2648.452880859375" fill="rgb(51, 51, 51)" font-size="50px" font-family="&quot;Gill Sans&quot;, &quot;Gill Sans MT&quot;, Calibri, sans-serif">Genes</text></g><g class="caption"><text class="caption node" text-anchor="middle" alignment-baseline="central" x="-1499.2154541015625" y="-2218.6749267578125" fill="rgb(51, 51, 51)" font-size="50px" font-family="&quot;Gill Sans&quot;, &quot;Gill Sans MT&quot;, Calibri, sans-serif">Symptoms</text></g><g class="caption"><text class="caption node" text-anchor="middle" alignment-baseline="central" x="-2211.0614013671875" y="-1974.7080078125" fill="rgb(51, 51, 51)" font-size="50px" font-family="&quot;Gill Sans&quot;, &quot;Gill Sans MT&quot;, Calibri, sans-serif">U19SCRIPT</text></g><g class="caption"><text class="caption node" text-anchor="middle" alignment-baseline="central" x="-2466.606201171875" y="-1353.4073486328125" fill="rgb(51, 51, 51)" font-size="50px" font-family="&quot;Gill Sans&quot;, &quot;Gill Sans MT&quot;, Calibri, sans-serif">TechCore</text></g><g class="caption"><text class="caption node" text-anchor="middle" alignment-baseline="central" x="-1544.4050903320312" y="-1274.982177734375" fill="rgb(51, 51, 51)" font-size="50px" font-family="&quot;Gill Sans&quot;, &quot;Gill Sans MT&quot;, Calibri, sans-serif">Microbiology</text></g><g class="caption"><text class="caption node" text-anchor="middle" alignment-baseline="central" x="354.52386474609375" y="-2898.931884765625" fill="rgb(51, 51, 51)" font-size="50px" font-family="&quot;Gill Sans&quot;, &quot;Gill Sans MT&quot;, Calibri, sans-serif">SideEffects</text></g><g class="caption"><text class="caption node" text-anchor="middle" alignment-baseline="central" x="-1863.260009765625" y="-2855.8775634765625" fill="rgb(51, 51, 51)" font-size="50px" font-family="&quot;Gill Sans&quot;, &quot;Gill Sans MT&quot;, Calibri, sans-serif">Type</text><text class="caption node" text-anchor="middle" alignment-baseline="central" x="-1863.260009765625" y="-2805.8775634765625" fill="rgb(51, 51, 51)" font-size="50px" font-family="&quot;Gill Sans&quot;, &quot;Gill Sans MT&quot;, Calibri, sans-serif">of Pneumonia</text></g><g class="caption"><text class="caption node" text-anchor="middle" alignment-baseline="central" x="-1183.98046875" y="-2975.27294921875" fill="rgb(51, 51, 51)" font-size="50px" font-family="&quot;Gill Sans&quot;, &quot;Gill Sans MT&quot;, Calibri, sans-serif">Cells</text></g></g><g class="layer properties"><g class="speech-bubble node-speech-bubble" transform="translate(-798.985538482666,-1953.6319742171172) "><path class="speech-bubble-outline" transform="scale(1,1) " d="M 0 0 L -10 20 L -219.68994140625 20 A 10 10 0 0 0 -229.68994140625 30 L -229.68994140625 180 A 10 10 0 0 0 -219.68994140625 190 L 219.68994140625 190 A 10 10 0 0 0 229.68994140625 180 L 229.68994140625 30 A 10 10 0 0 0 219.68994140625 20 L 10 20 Z" fill="rgb(255, 255, 255)" stroke="rgb(0, 0, 0)" stroke-width="3px"/><text class="speech-bubble-content property-key" x="78.03955078125" y="55" alignment-baseline="central" text-anchor="end" font-size="50px" font-family="&quot;Gill Sans&quot;, &quot;Gill Sans MT&quot;, Calibri, sans-serif" xml:space="preserve">id: </text><text class="speech-bubble-content property-key" x="78.03955078125" y="105" alignment-baseline="central" text-anchor="end" font-size="50px" font-family="&quot;Gill Sans&quot;, &quot;Gill Sans MT&quot;, Calibri, sans-serif" xml:space="preserve">age: </text><text class="speech-bubble-content property-key" x="78.03955078125" y="155" alignment-baseline="central" text-anchor="end" font-size="50px" font-family="&quot;Gill Sans&quot;, &quot;Gill Sans MT&quot;, Calibri, sans-serif" xml:space="preserve">encounter_id: </text><text class="speech-bubble-content property-value" x="78.03955078125" y="55" alignment-baseline="central" font-size="50px" font-family="&quot;Gill Sans&quot;, &quot;Gill Sans MT&quot;, Calibri, sans-serif">integer</text><text class="speech-bubble-content property-value" x="78.03955078125" y="105" alignment-baseline="central" font-size="50px" font-family="&quot;Gill Sans&quot;, &quot;Gill Sans MT&quot;, Calibri, sans-serif">integer</text><text class="speech-bubble-content property-value" x="78.03955078125" y="155" alignment-baseline="central" font-size="50px" font-family="&quot;Gill Sans&quot;, &quot;Gill Sans MT&quot;, Calibri, sans-serif">string</text></g><g class="speech-bubble node-speech-bubble" transform="translate(-349.7768673760936,-2876.386044011836) "><path class="speech-bubble-outline" transform="scale(-1,-1) " d="M 0 0 L 30 20 L 420.234375 20 A 10 10 0 0 1 430.234375 30 L 430.234375 180 A 10 10 0 0 1 420.234375 190 L 30 190 A 10 10 0 0 1 20 180 L 20 30 Z" fill="rgb(255, 255, 255)" stroke="rgb(0, 0, 0)" stroke-width="3px"/><text class="speech-bubble-content property-key" x="-171.650390625" y="-155" alignment-baseline="central" text-anchor="end" font-size="50px" font-family="&quot;Gill Sans&quot;, &quot;Gill Sans MT&quot;, Calibri, sans-serif" xml:space="preserve">id: </text><text class="speech-bubble-content property-key" x="-171.650390625" y="-105" alignment-baseline="central" text-anchor="end" font-size="50px" font-family="&quot;Gill Sans&quot;, &quot;Gill Sans MT&quot;, Calibri, sans-serif" xml:space="preserve">name: </text><text class="speech-bubble-content property-key" x="-171.650390625" y="-55" alignment-baseline="central" text-anchor="end" font-size="50px" font-family="&quot;Gill Sans&quot;, &quot;Gill Sans MT&quot;, Calibri, sans-serif" xml:space="preserve">production: </text><text class="speech-bubble-content property-value" x="-171.650390625" y="-155" alignment-baseline="central" font-size="50px" font-family="&quot;Gill Sans&quot;, &quot;Gill Sans MT&quot;, Calibri, sans-serif">integer</text><text class="speech-bubble-content property-value" x="-171.650390625" y="-105" alignment-baseline="central" font-size="50px" font-family="&quot;Gill Sans&quot;, &quot;Gill Sans MT&quot;, Calibri, sans-serif">string</text><text class="speech-bubble-content property-value" x="-171.650390625" y="-55" alignment-baseline="central" font-size="50px" font-family="&quot;Gill Sans&quot;, &quot;Gill Sans MT&quot;, Calibri, sans-serif">string</text></g><g class="speech-bubble node-speech-bubble" transform="translate(-7.497307300567627,-1258.3329687958496) "><path class="speech-bubble-outline" transform="scale(1,1) " d="M 0 0 L -10 20 L -173.20556640625 20 A 10 10 0 0 0 -183.20556640625 30 L -183.20556640625 230 A 10 10 0 0 0 -173.20556640625 240 L 173.20556640625 240 A 10 10 0 0 0 183.20556640625 230 L 183.20556640625 30 A 10 10 0 0 0 173.20556640625 20 L 10 20 Z" fill="rgb(255, 255, 255)" stroke="rgb(0, 0, 0)" stroke-width="3px"/><text class="speech-bubble-content property-key" x="31.55517578125" y="55" alignment-baseline="central" text-anchor="end" font-size="50px" font-family="&quot;Gill Sans&quot;, &quot;Gill Sans MT&quot;, Calibri, sans-serif" xml:space="preserve">id: </text><text class="speech-bubble-content property-key" x="31.55517578125" y="105" alignment-baseline="central" text-anchor="end" font-size="50px" font-family="&quot;Gill Sans&quot;, &quot;Gill Sans MT&quot;, Calibri, sans-serif" xml:space="preserve">t1: </text><text class="speech-bubble-content property-key" x="31.55517578125" y="155" alignment-baseline="central" text-anchor="end" font-size="50px" font-family="&quot;Gill Sans&quot;, &quot;Gill Sans MT&quot;, Calibri, sans-serif" xml:space="preserve">t2: </text><text class="speech-bubble-content property-key" x="31.55517578125" y="205" alignment-baseline="central" text-anchor="end" font-size="50px" font-family="&quot;Gill Sans&quot;, &quot;Gill Sans MT&quot;, Calibri, sans-serif" xml:space="preserve">order_id: </text><text class="speech-bubble-content property-value" x="31.55517578125" y="55" alignment-baseline="central" font-size="50px" font-family="&quot;Gill Sans&quot;, &quot;Gill Sans MT&quot;, Calibri, sans-serif">integer</text><text class="speech-bubble-content property-value" x="31.55517578125" y="105" alignment-baseline="central" font-size="50px" font-family="&quot;Gill Sans&quot;, &quot;Gill Sans MT&quot;, Calibri, sans-serif">string</text><text class="speech-bubble-content property-value" x="31.55517578125" y="155" alignment-baseline="central" font-size="50px" font-family="&quot;Gill Sans&quot;, &quot;Gill Sans MT&quot;, Calibri, sans-serif">string</text><text class="speech-bubble-content property-value" x="31.55517578125" y="205" alignment-baseline="central" font-size="50px" font-family="&quot;Gill Sans&quot;, &quot;Gill Sans MT&quot;, Calibri, sans-serif">integer</text></g><g class="speech-bubble node-speech-bubble" transform="translate(756.7661068161656,-2218.6749267578125) "><path class="speech-bubble-outline" transform="scale(1,1) " d="M 0 0 L 20 -10 L 20 -25 A 10 10 0 0 1 30 -35 L 232.9541015625 -35 A 10 10 0 0 1 242.9541015625 -25 L 242.9541015625 25 A 10 10 0 0 1 232.9541015625 35 L 30 35 A 10 10 0 0 1 20 25 L 20 10 Z" fill="rgb(255, 255, 255)" stroke="rgb(0, 0, 0)" stroke-width="3px"/><text class="speech-bubble-content property-key" x="91.3037109375" y="0" alignment-baseline="central" text-anchor="end" font-size="50px" font-family="&quot;Gill Sans&quot;, &quot;Gill Sans MT&quot;, Calibri, sans-serif" xml:space="preserve">id: </text><text class="speech-bubble-content property-value" x="91.3037109375" y="0" alignment-baseline="central" font-size="50px" font-family="&quot;Gill Sans&quot;, &quot;Gill Sans MT&quot;, Calibri, sans-serif">integer</text></g></g><g class="layer overlay"><circle class="node overlay" r="113.4889723312753" stroke="none" fill="rgba(255, 255, 255, 0)" cx="-1625.0654907226562" cy="-1778.0421142578125"/><circle class="node overlay" r="97.3409274235079" stroke="none" fill="rgba(255, 255, 255, 0)" cx="-798.985538482666" cy="-2046.976806640625"/><circle class="node overlay" r="137.20000598547455" stroke="none" fill="rgba(255, 255, 255, 0)" cx="-255.5874786376953" cy="-2782.1966552734375"/><circle class="node overlay" r="188.5261633135253" stroke="none" fill="rgba(255, 255, 255, 0)" cx="-7.497307300567627" cy="-1442.863037109375"/><circle class="node overlay" r="228.06180623205915" stroke="none" fill="rgba(255, 255, 255, 0)" cx="532.7003955841064" cy="-2218.6749267578125"/><circle class="node overlay" r="92.23780971451711" stroke="none" fill="rgba(255, 255, 255, 0)" cx="-1183.98046875" cy="-2648.452880859375"/><circle class="node overlay" r="131.11024066063848" stroke="none" fill="rgba(255, 255, 255, 0)" cx="-1499.2154541015625" cy="-2218.6749267578125"/><circle class="node overlay" r="146.59183850971402" stroke="none" fill="rgba(255, 255, 255, 0)" cx="-2211.0614013671875" cy="-1974.7080078125"/><circle class="node overlay" r="125.72643228326035" stroke="none" fill="rgba(255, 255, 255, 0)" cx="-2466.606201171875" cy="-1353.4073486328125"/><circle class="node overlay" r="157.52538519355736" stroke="none" fill="rgba(255, 255, 255, 0)" cx="-1544.4050903320312" cy="-1274.982177734375"/><circle class="node overlay" r="133.14213068880082" stroke="none" fill="rgba(255, 255, 255, 0)" cx="354.52386474609375" cy="-2898.931884765625"/><circle class="node overlay" r="170.17315902859266" stroke="none" fill="rgba(255, 255, 255, 0)" cx="-1863.260009765625" cy="-2830.8775634765625"/><circle class="node overlay" r="79.12329082428336" stroke="none" fill="rgba(255, 255, 255, 0)" cx="-1183.98046875" cy="-2975.27294921875"/><circle class="node ring" r="118.4889723312753" fill="none" stroke="rgba(255, 255, 255, 0)" stroke-width="10px" cx="-1625.0654907226562" cy="-1778.0421142578125"/><circle class="node ring" r="102.3409274235079" fill="none" stroke="rgba(255, 255, 255, 0)" stroke-width="10px" cx="-798.985538482666" cy="-2046.976806640625"/><circle class="node ring" r="142.20000598547455" fill="none" stroke="rgba(255, 255, 255, 0)" stroke-width="10px" cx="-255.5874786376953" cy="-2782.1966552734375"/><circle class="node ring" r="193.5261633135253" fill="none" stroke="rgba(255, 255, 255, 0)" stroke-width="10px" cx="-7.497307300567627" cy="-1442.863037109375"/><circle class="node ring" r="233.06180623205915" fill="none" stroke="rgba(255, 255, 255, 0)" stroke-width="10px" cx="532.7003955841064" cy="-2218.6749267578125"/><circle class="node ring" r="97.23780971451711" fill="none" stroke="rgba(255, 255, 255, 0)" stroke-width="10px" cx="-1183.98046875" cy="-2648.452880859375"/><circle class="node ring" r="136.11024066063848" fill="none" stroke="rgba(255, 255, 255, 0)" stroke-width="10px" cx="-1499.2154541015625" cy="-2218.6749267578125"/><circle class="node ring" r="151.59183850971402" fill="none" stroke="rgba(255, 255, 255, 0)" stroke-width="10px" cx="-2211.0614013671875" cy="-1974.7080078125"/><circle class="node ring" r="130.72643228326035" fill="none" stroke="rgba(255, 255, 255, 0)" stroke-width="10px" cx="-2466.606201171875" cy="-1353.4073486328125"/><circle class="node ring" r="162.52538519355736" fill="none" stroke="rgba(255, 255, 255, 0)" stroke-width="10px" cx="-1544.4050903320312" cy="-1274.982177734375"/><circle class="node ring" r="138.14213068880082" fill="none" stroke="rgba(255, 255, 255, 0)" stroke-width="10px" cx="354.52386474609375" cy="-2898.931884765625"/><circle class="node ring" r="175.17315902859266" fill="none" stroke="rgba(255, 255, 255, 0)" stroke-width="10px" cx="-1863.260009765625" cy="-2830.8775634765625"/><circle class="node ring" r="84.12329082428336" fill="none" stroke="rgba(255, 255, 255, 0)" stroke-width="10px" cx="-1183.98046875" cy="-2975.27294921875"/><path class="relationship overlay" fill="rgba(255, 255, 255, 0)" stroke="rgba(255, 255, 255, 0)" stroke-width="10px" transform="translate(-1625.0654907226562,-1778.0421142578125) rotate(-18.032932807831635)" d="M 124.4889723312753 4 L 728.4133279674297 4 L 728.4133279674297 16 L 760.4133279674297 0 L 728.4133279674297 -16 L 728.4133279674297 -4 L 124.4889723312753 -4 Z"/><path class="relationship overlay" fill="rgba(255, 255, 255, 0)" stroke="rgba(255, 255, 255, 0)" stroke-width="10px" transform="translate(-798.985538482666,-2046.976806640625) rotate(-53.53204101349936)" d="M 108.3409274235079 4 L 734.0372046261555 4 L 734.0372046261555 16 L 766.0372046261555 0 L 734.0372046261555 -16 L 734.0372046261555 -4 L 108.3409274235079 -4 Z"/><path class="relationship overlay" fill="rgba(255, 255, 255, 0)" stroke="rgba(255, 255, 255, 0)" stroke-width="10px" transform="translate(532.7003955841064,-2218.6749267578125) rotate(172.65322067095565)" d="M 239.06180623205915 4 L 1202.3681518051492 4 L 1202.3681518051492 16 L 1234.3681518051492 0 L 1202.3681518051492 -16 L 1202.3681518051492 -4 L 239.06180623205915 -4 Z"/><path class="relationship overlay" fill="rgba(255, 255, 255, 0)" stroke="rgba(255, 255, 255, 0)" stroke-width="10px" transform="translate(-7.497307300567627,-1442.863037109375) rotate(-142.64684149176358)" d="M 199.5261633135253 4 L 855.3533362121842 4 L 855.3533362121842 16 L 887.3533362121842 0 L 855.3533362121842 -16 L 855.3533362121842 -4 L 199.5261633135253 -4 Z"/><path class="relationship overlay" fill="rgba(255, 255, 255, 0)" stroke="rgba(255, 255, 255, 0)" stroke-width="10px" transform="translate(-1625.0654907226562,-1778.0421142578125) rotate(-161.44774946726764)" d="M 124.4889723312753 4 L 428.5252062154554 4 L 428.5252062154554 16 L 460.5252062154554 0 L 428.5252062154554 -16 L 428.5252062154554 -4 L 124.4889723312753 -4 Z"/><path class="relationship overlay" fill="rgba(255, 255, 255, 0)" stroke="rgba(255, 255, 255, 0)" stroke-width="10px" transform="translate(-1625.0654907226562,-1778.0421142578125) rotate(153.22485088348182)" d="M 124.4889723312753 4 L 773.8792389922601 4 L 773.8792389922601 16 L 805.8792389922601 0 L 773.8792389922601 -16 L 773.8792389922601 -4 L 124.4889723312753 -4 Z"/><path class="relationship overlay" fill="rgba(255, 255, 255, 0)" stroke="rgba(255, 255, 255, 0)" stroke-width="10px" transform="translate(-1625.0654907226562,-1778.0421142578125) rotate(80.89075529709372)" d="M 124.4889723312753 4 L 308.960041414644 4 L 308.960041414644 16 L 340.960041414644 0 L 308.960041414644 -16 L 308.960041414644 -4 L 124.4889723312753 -4 Z"/><path class="relationship overlay" fill="rgba(255, 255, 255, 0)" stroke="rgba(255, 255, 255, 0)" stroke-width="10px" transform="translate(532.7003955841064,-2218.6749267578125) rotate(-144.44023918461545)" d="M 239.06180623205915 4 L 788.7966457911789 4 L 788.7966457911789 16 L 820.7966457911789 0 L 788.7966457911789 -16 L 788.7966457911789 -4 L 239.06180623205915 -4 Z"/><path class="relationship overlay" fill="rgba(255, 255, 255, 0)" stroke="rgba(255, 255, 255, 0)" stroke-width="10px" transform="translate(532.7003955841064,-2218.6749267578125) rotate(124.84948887252953)" d="M 239.06180623205915 4 L 713.8296672189562 4 L 713.8296672189562 16 L 745.8296672189562 0 L 713.8296672189562 -16 L 713.8296672189562 -4 L 239.06180623205915 -4 Z"/><path class="relationship overlay" fill="rgba(255, 255, 255, 0)" stroke="rgba(255, 255, 255, 0)" stroke-width="10px" transform="translate(-798.985538482666,-2046.976806640625) rotate(-122.62263827200064)" d="M 108.3409274235079 4 L 578.901227300789 4 L 578.901227300789 16 L 610.901227300789 0 L 578.901227300789 -16 L 578.901227300789 -4 L 108.3409274235079 -4 Z"/><path class="relationship overlay" fill="rgba(255, 255, 255, 0)" stroke="rgba(255, 255, 255, 0)" stroke-width="10px" transform="translate(-798.985538482666,-2046.976806640625) rotate(-166.22275487422158)" d="M 108.3409274235079 4 L 546.8628373245405 4 L 546.8628373245405 16 L 578.8628373245405 0 L 546.8628373245405 -16 L 546.8628373245405 -4 L 108.3409274235079 -4 Z"/><path class="relationship overlay" fill="rgba(255, 255, 255, 0)" stroke="rgba(255, 255, 255, 0)" stroke-width="10px" transform="translate(-255.5874786376953,-2782.1966552734375) rotate(-10.83173532199159)" d="M 148.20000598547455 4 L 445.03655948832164 4 L 445.03655948832164 16 L 477.03655948832164 0 L 445.03655948832164 -16 L 445.03655948832164 -4 L 148.20000598547455 -4 Z"/><path class="relationship overlay" fill="rgba(255, 255, 255, 0)" stroke="rgba(255, 255, 255, 0)" stroke-width="10px" transform="translate(-1183.98046875,-2648.452880859375) rotate(-164.96755961107613)" d="M 103.23780971451711 4 L 490.17558780357433 4 L 490.17558780357433 16 L 522.1755878035743 0 L 490.17558780357433 -16 L 490.17558780357433 -4 L 103.23780971451711 -4 Z"/><path class="relationship overlay" fill="rgba(255, 255, 255, 0)" stroke="rgba(255, 255, 255, 0)" stroke-width="10px" transform="translate(-1499.2154541015625,-2218.6749267578125) rotate(-120.73771250713881)" d="M 142.11024066063848 4 L 499.09119281981657 4 L 499.09119281981657 16 L 531.0911928198166 0 L 499.09119281981657 -16 L 499.09119281981657 -4 L 142.11024066063848 -4 Z"/><path class="relationship overlay" fill="rgba(255, 255, 255, 0)" stroke="rgba(255, 255, 255, 0)" stroke-width="10px" transform="translate(-1183.98046875,-2648.452880859375) rotate(-90)" d="M 103.23780971451711 4 L 204.69677753509166 4 L 204.69677753509166 16 L 236.69677753509166 0 L 204.69677753509166 -16 L 204.69677753509166 -4 L 103.23780971451711 -4 Z"/></g></svg>
