<svg xmlns="http://www.w3.org/2000/svg" class="graphdiagram" viewBox="-3658.1857796977447 -3757.2783816999354 5720.499807194128 2685.953425096618"><g class="layer relationships"><g class="related-pair"><g class="relationship" transform="translate(-1660.4776000976562,-1655.461669921875) rotate(-24.43997702330187)"><path class="relationship" d="M 124.4889723312753 4 L 805.942684664088 4 L 805.942684664088 16 L 837.942684664088 0 L 805.942684664088 -16 L 805.942684664088 -4 L 124.4889723312753 -4 Z" fill="rgb(0, 0, 0)" stroke="rgb(51, 51, 51)" stroke-width="0px"/></g></g><g class="related-pair"><g class="relationship" transform="translate(-798.985538482666,-2046.976806640625) rotate(-53.48790654554865)"><path class="relationship" d="M 108.3409274235079 4 L 733.085642059902 4 L 733.085642059902 16 L 765.085642059902 0 L 733.085642059902 -16 L 733.085642059902 -4 L 108.3409274235079 -4 Z" fill="rgb(0, 0, 0)" stroke="rgb(51, 51, 51)" stroke-width="0px"/><text class="type" text-anchor="middle" baseline-shift="30%" alignment-baseline="alphabetic" x="420.713284741705" y="0" font-size="50px" font-family="&quot;Gill Sans&quot;, &quot;Gill Sans MT&quot;, Calibri, sans-serif">takes</text></g></g><g class="related-pair"><g class="relationship" transform="translate(532.7003955841064,-2218.6749267578125) rotate(172.65322067095565)"><path class="relationship" d="M 239.06180623205915 4 L 1202.3681518051492 4 L 1202.3681518051492 16 L 1234.3681518051492 0 L 1202.3681518051492 -16 L 1202.3681518051492 -4 L 239.06180623205915 -4 Z" fill="rgb(0, 0, 0)" stroke="rgb(51, 51, 51)" stroke-width="0px"/><text class="type" text-anchor="middle" baseline-shift="30%" alignment-baseline="alphabetic" transform="rotate(180)" x="-720.7149790186043" y="0" font-size="50px" font-family="&quot;Gill Sans&quot;, &quot;Gill Sans MT&quot;, Calibri, sans-serif">takes_care_of</text></g></g><g class="related-pair"><g class="relationship" transform="translate(26.486262798309326,-1551.5146484375) rotate(-149.0271048445663)"><path class="relationship" d="M 145.1410056453336 4 L 822.4084921667386 4 L 822.4084921667386 16 L 854.4084921667386 0 L 822.4084921667386 -16 L 822.4084921667386 -4 L 145.1410056453336 -4 Z" fill="rgb(0, 0, 0)" stroke="rgb(51, 51, 51)" stroke-width="0px"/><text class="type" text-anchor="middle" baseline-shift="30%" alignment-baseline="alphabetic" transform="rotate(180)" x="-483.77474890603605" y="0" font-size="50px" font-family="&quot;Gill Sans&quot;, &quot;Gill Sans MT&quot;, Calibri, sans-serif">lab_results_of</text></g></g><g class="related-pair"><g class="relationship" transform="translate(-1660.4776000976562,-1655.461669921875) rotate(-157.03613286732627)"><path class="relationship" d="M 124.4889723312753 4 L 668.427814196984 4 L 668.427814196984 16 L 700.427814196984 0 L 668.427814196984 -16 L 668.427814196984 -4 L 124.4889723312753 -4 Z" fill="rgb(0, 0, 0)" stroke="rgb(51, 51, 51)" stroke-width="0px"/></g></g><g class="related-pair"><g class="relationship" transform="translate(-1660.4776000976562,-1655.461669921875) rotate(156.67182343597662)"><path class="relationship" d="M 124.4889723312753 4 L 691.6286073808435 4 L 691.6286073808435 16 L 723.6286073808435 0 L 691.6286073808435 -16 L 691.6286073808435 -4 L 124.4889723312753 -4 Z" fill="rgb(0, 0, 0)" stroke="rgb(51, 51, 51)" stroke-width="0px"/></g></g><g class="related-pair"><g class="relationship" transform="translate(-1660.4776000976562,-1655.461669921875) rotate(27.254440551245068)"><path class="relationship" d="M 124.4889723312753 4 L 731.0567131816044 4 L 731.0567131816044 16 L 763.0567131816044 0 L 731.0567131816044 -16 L 731.0567131816044 -4 L 124.4889723312753 -4 Z" fill="rgb(0, 0, 0)" stroke="rgb(51, 51, 51)" stroke-width="0px"/></g></g><g class="related-pair"><g class="relationship" transform="translate(532.7003955841064,-2218.6749267578125) rotate(-144.49721283600502)"><path class="relationship" d="M 239.06180623205915 4 L 788.1088034636646 4 L 788.1088034636646 16 L 820.1088034636646 0 L 788.1088034636646 -16 L 788.1088034636646 -4 L 239.06180623205915 -4 Z" fill="rgb(0, 0, 0)" stroke="rgb(51, 51, 51)" stroke-width="0px"/><text class="type" text-anchor="middle" baseline-shift="30%" alignment-baseline="alphabetic" transform="rotate(180)" x="-513.5853048478618" y="0" font-size="50px" font-family="&quot;Gill Sans&quot;, &quot;Gill Sans MT&quot;, Calibri, sans-serif">prescribes</text></g></g><g class="related-pair"><g class="relationship" transform="translate(532.7003955841064,-2218.6749267578125) rotate(127.18975055708243)"><path class="relationship" d="M 239.06180623205915 4 L 660.3287461669414 4 L 660.3287461669414 16 L 692.3287461669414 0 L 660.3287461669414 -16 L 660.3287461669414 -4 L 239.06180623205915 -4 Z" fill="rgb(0, 0, 0)" stroke="rgb(51, 51, 51)" stroke-width="0px"/><text class="type" text-anchor="middle" baseline-shift="30%" alignment-baseline="alphabetic" transform="rotate(180)" x="-449.6952761995003" y="0" font-size="50px" font-family="&quot;Gill Sans&quot;, &quot;Gill Sans MT&quot;, Calibri, sans-serif">orders</text></g></g><g class="related-pair"><g class="relationship" transform="translate(-798.985538482666,-2046.976806640625) rotate(-120.38863999514155)"><path class="relationship" d="M 108.3409274235079 4 L 490.18791604650016 4 L 490.18791604650016 16 L 522.1879160465002 0 L 490.18791604650016 -16 L 490.18791604650016 -4 L 108.3409274235079 -4 Z" fill="rgb(0, 0, 0)" stroke="rgb(51, 51, 51)" stroke-width="0px"/></g></g><g class="related-pair"><g class="relationship" transform="translate(-798.985538482666,-2046.976806640625) rotate(-165.90139773666667)"><path class="relationship" d="M 108.3409274235079 4 L 530.7510731835235 4 L 530.7510731835235 16 L 562.7510731835235 0 L 530.7510731835235 -16 L 530.7510731835235 -4 L 108.3409274235079 -4 Z" fill="rgb(0, 0, 0)" stroke="rgb(51, 51, 51)" stroke-width="0px"/></g></g><g class="related-pair"><g class="relationship" transform="translate(-255.5874786376953,-2781.0130615234375) rotate(-10.938923110335308)"><path class="relationship" d="M 148.20000598547455 4 L 445.26007416759813 4 L 445.26007416759813 16 L 477.26007416759813 0 L 445.26007416759813 -16 L 445.26007416759813 -4 L 148.20000598547455 -4 Z" fill="rgb(0, 0, 0)" stroke="rgb(51, 51, 51)" stroke-width="0px"/></g></g><g class="related-pair"><g class="relationship" transform="translate(-1115.3651123046875,-2586.477783203125) rotate(-162.4172979164627)"><path class="relationship" d="M 103.23780971451711 4 L 546.2821152633194 4 L 546.2821152633194 16 L 578.2821152633194 0 L 546.2821152633194 -16 L 546.2821152633194 -4 L 103.23780971451711 -4 Z" fill="rgb(0, 0, 0)" stroke="rgb(51, 51, 51)" stroke-width="0px"/></g></g><g class="related-pair"><g class="relationship" transform="translate(-1482.614990234375,-2218.6749267578125) rotate(-120.85023774072941)"><path class="relationship" d="M 142.11024066063848 4 L 482.47428295547763 4 L 482.47428295547763 16 L 514.4742829554776 0 L 482.47428295547763 -16 L 482.47428295547763 -4 L 142.11024066063848 -4 Z" fill="rgb(0, 0, 0)" stroke="rgb(51, 51, 51)" stroke-width="0px"/><text class="type" text-anchor="middle" baseline-shift="30%" alignment-baseline="alphabetic" transform="rotate(180)" x="-312.292261808058" y="0" font-size="50px" font-family="&quot;Gill Sans&quot;, &quot;Gill Sans MT&quot;, Calibri, sans-serif">Exsits_in</text></g></g><g class="related-pair"><g class="relationship" transform="translate(-1115.3651123046875,-2586.477783203125) rotate(-18.703559842269847)"><path class="relationship" d="M 103.23780971451711 4 L 320.7008132015157 4 L 320.7008132015157 16 L 352.7008132015157 0 L 320.7008132015157 -16 L 320.7008132015157 -4 L 103.23780971451711 -4 Z" fill="rgb(0, 0, 0)" stroke="rgb(51, 51, 51)" stroke-width="0px"/></g></g><g class="related-pair"><g class="relationship" transform="translate(26.486262798309326,-1551.5146484375) rotate(159.40813011038037)"><path class="relationship" d="M 145.1410056453336 4 L 716.8934786629516 4 L 716.8934786629516 16 L 748.8934786629516 0 L 716.8934786629516 -16 L 716.8934786629516 -4 L 145.1410056453336 -4 Z" fill="rgb(0, 0, 0)" stroke="rgb(51, 51, 51)" stroke-width="0px"/><text class="type" text-anchor="middle" baseline-shift="30%" alignment-baseline="alphabetic" transform="rotate(180)" x="-431.01724215414254" y="0" font-size="50px" font-family="&quot;Gill Sans&quot;, &quot;Gill Sans MT&quot;, Calibri, sans-serif">Load_into</text></g></g><g class="related-pair"><g class="relationship" transform="translate(-1115.3651123046875,-2586.477783203125) rotate(-104.31507681588364)"><path class="relationship" d="M 103.23780971451711 4 L 321.9658287358897 4 L 321.9658287358897 16 L 353.9658287358897 0 L 321.9658287358897 -16 L 321.9658287358897 -4 L 103.23780971451711 -4 Z" fill="rgb(0, 0, 0)" stroke="rgb(51, 51, 51)" stroke-width="0px"/></g></g><g class="related-pair"><g class="relationship" transform="translate(-1237.212158203125,-3063.977783203125) rotate(-103.290326312083)"><path class="relationship" d="M 138.83530011242772 4 L 417.0450932805061 4 L 417.0450932805061 16 L 449.0450932805061 0 L 417.0450932805061 -16 L 417.0450932805061 -4 L 138.83530011242772 -4 Z" fill="rgb(0, 0, 0)" stroke="rgb(51, 51, 51)" stroke-width="0px"/></g></g><g class="related-pair"><g class="relationship" transform="translate(-1115.3651123046875,-2586.477783203125) rotate(-60.00780719303577)"><path class="relationship" d="M 103.23780971451711 4 L 784.2970054924594 4 L 784.2970054924594 16 L 816.2970054924594 0 L 784.2970054924594 -16 L 784.2970054924594 -4 L 103.23780971451711 -4 Z" fill="rgb(0, 0, 0)" stroke="rgb(51, 51, 51)" stroke-width="0px"/></g></g><g class="related-pair"><g class="relationship" transform="translate(-1366.2325439453125,-3610.184326171875) rotate(16.449415121354512)"><path class="relationship" d="M 112.1926883405603 4 L 597.3372396723383 4 L 597.3372396723383 16 L 629.3372396723383 0 L 597.3372396723383 -16 L 597.3372396723383 -4 L 112.1926883405603 -4 Z" fill="rgb(0, 0, 0)" stroke="rgb(51, 51, 51)" stroke-width="0px"/></g></g></g><g class="layer nodes"><circle class="node node-id-0" r="109.49287733127531" fill="rgb(255, 255, 255)" stroke="rgb(0, 0, 0)" stroke-width="7.99219px" cx="-1660.4776000976562" cy="-1655.461669921875"/><circle class="node node-id-1" r="93.34483242350791" fill="rgb(255, 255, 255)" stroke="rgb(0, 0, 0)" stroke-width="7.99219px" cx="-798.985538482666" cy="-2046.976806640625"/><circle class="node node-id-2" r="133.20391098547455" fill="rgb(255, 255, 255)" stroke="rgb(0, 0, 0)" stroke-width="7.99219px" cx="-255.5874786376953" cy="-2781.0130615234375"/><circle class="node node-id-3" r="130.1449106453336" fill="rgb(255, 255, 255)" stroke="rgb(0, 0, 0)" stroke-width="7.99219px" cx="26.486262798309326" cy="-1551.5146484375"/><circle class="node node-id-4" r="224.06571123205916" fill="rgb(255, 255, 255)" stroke="rgb(0, 0, 0)" stroke-width="7.99219px" cx="532.7003955841064" cy="-2218.6749267578125"/><circle class="node node-id-5" r="88.24171471451712" fill="rgb(255, 255, 255)" stroke="rgb(0, 0, 0)" stroke-width="7.99219px" cx="-1115.3651123046875" cy="-2586.477783203125"/><circle class="node node-id-6" r="127.11414566063847" fill="rgb(255, 255, 255)" stroke="rgb(0, 0, 0)" stroke-width="7.99219px" cx="-1482.614990234375" cy="-2218.6749267578125"/><circle class="node node-id-7" r="142.59574350971403" fill="rgb(255, 255, 255)" stroke="rgb(0, 0, 0)" stroke-width="7.99219px" cx="-2450.5001220703125" cy="-1990.218505859375"/><circle class="node node-id-8" r="121.73033728326035" fill="rgb(255, 255, 255)" stroke="rgb(0, 0, 0)" stroke-width="7.99219px" cx="-2450.5001220703125" cy="-1314.7635498046875"/><circle class="node node-id-9" r="153.52929019355736" fill="rgb(255, 255, 255)" stroke="rgb(0, 0, 0)" stroke-width="7.99219px" cx="-832.3182067871094" cy="-1228.850341796875"/><circle class="node node-id-10" r="129.14603568880082" fill="rgb(255, 255, 255)" stroke="rgb(0, 0, 0)" stroke-width="7.99219px" cx="354.52386474609375" cy="-2898.931884765625"/><circle class="node node-id-11" r="166.17706402859267" fill="rgb(255, 255, 255)" stroke="rgb(0, 0, 0)" stroke-width="7.99219px" cx="-1839.340087890625" cy="-2815.8956298828125"/><circle class="node node-id-12" r="75.12719582428336" fill="rgb(255, 255, 255)" stroke="rgb(0, 0, 0)" stroke-width="7.99219px" cx="-695.9263916015625" cy="-2728.47900390625"/><g class="caption"><text class="caption node" text-anchor="middle" alignment-baseline="central" x="-1660.4776000976562" y="-1655.461669921875" fill="rgb(51, 51, 51)" font-size="50px" font-family="&quot;Gill Sans&quot;, &quot;Gill Sans MT&quot;, Calibri, sans-serif">REDCap</text></g><g class="caption"><text class="caption node" text-anchor="middle" alignment-baseline="central" x="-798.985538482666" y="-2046.976806640625" fill="rgb(51, 51, 51)" font-size="50px" font-family="&quot;Gill Sans&quot;, &quot;Gill Sans MT&quot;, Calibri, sans-serif">Patient</text></g><g class="caption"><text class="caption node" text-anchor="middle" alignment-baseline="central" x="-255.5874786376953" y="-2781.0130615234375" fill="rgb(51, 51, 51)" font-size="50px" font-family="&quot;Gill Sans&quot;, &quot;Gill Sans MT&quot;, Calibri, sans-serif">Medication</text></g><g class="caption"><text class="caption node" text-anchor="middle" alignment-baseline="central" x="26.486262798309326" y="-1551.5146484375" fill="rgb(51, 51, 51)" font-size="50px" font-family="&quot;Gill Sans&quot;, &quot;Gill Sans MT&quot;, Calibri, sans-serif">LabParams</text></g><g class="caption"><text class="caption node" text-anchor="middle" alignment-baseline="central" x="532.7003955841064" y="-2218.6749267578125" fill="rgb(51, 51, 51)" font-size="50px" font-family="&quot;Gill Sans&quot;, &quot;Gill Sans MT&quot;, Calibri, sans-serif">HealthCareProvider</text></g><g class="caption"><text class="caption node" text-anchor="middle" alignment-baseline="central" x="-1115.3651123046875" y="-2586.477783203125" fill="rgb(51, 51, 51)" font-size="50px" font-family="&quot;Gill Sans&quot;, &quot;Gill Sans MT&quot;, Calibri, sans-serif">Genes</text></g><g class="caption"><text class="caption node" text-anchor="middle" alignment-baseline="central" x="-1482.614990234375" y="-2218.6749267578125" fill="rgb(51, 51, 51)" font-size="50px" font-family="&quot;Gill Sans&quot;, &quot;Gill Sans MT&quot;, Calibri, sans-serif">Symptoms</text></g><g class="caption"><text class="caption node" text-anchor="middle" alignment-baseline="central" x="-2450.5001220703125" y="-1990.218505859375" fill="rgb(51, 51, 51)" font-size="50px" font-family="&quot;Gill Sans&quot;, &quot;Gill Sans MT&quot;, Calibri, sans-serif">U19SCRIPT</text></g><g class="caption"><text class="caption node" text-anchor="middle" alignment-baseline="central" x="-2450.5001220703125" y="-1314.7635498046875" fill="rgb(51, 51, 51)" font-size="50px" font-family="&quot;Gill Sans&quot;, &quot;Gill Sans MT&quot;, Calibri, sans-serif">TechCore</text></g><g class="caption"><text class="caption node" text-anchor="middle" alignment-baseline="central" x="-832.3182067871094" y="-1228.850341796875" fill="rgb(51, 51, 51)" font-size="50px" font-family="&quot;Gill Sans&quot;, &quot;Gill Sans MT&quot;, Calibri, sans-serif">Microbiology</text></g><g class="caption"><text class="caption node" text-anchor="middle" alignment-baseline="central" x="354.52386474609375" y="-2898.931884765625" fill="rgb(51, 51, 51)" font-size="50px" font-family="&quot;Gill Sans&quot;, &quot;Gill Sans MT&quot;, Calibri, sans-serif">SideEffects</text></g><g class="caption"><text class="caption node" text-anchor="middle" alignment-baseline="central" x="-1839.340087890625" y="-2840.8956298828125" fill="rgb(51, 51, 51)" font-size="50px" font-family="&quot;Gill Sans&quot;, &quot;Gill Sans MT&quot;, Calibri, sans-serif">Type</text><text class="caption node" text-anchor="middle" alignment-baseline="central" x="-1839.340087890625" y="-2790.8956298828125" fill="rgb(51, 51, 51)" font-size="50px" font-family="&quot;Gill Sans&quot;, &quot;Gill Sans MT&quot;, Calibri, sans-serif">of Pneumonia</text></g><g class="caption"><text class="caption node" text-anchor="middle" alignment-baseline="central" x="-695.9263916015625" y="-2728.47900390625" fill="rgb(51, 51, 51)" font-size="50px" font-family="&quot;Gill Sans&quot;, &quot;Gill Sans MT&quot;, Calibri, sans-serif">Cells</text></g><circle class="node node-id-13" r="123.83920511242773" fill="rgb(255, 255, 255)" stroke="rgb(0, 0, 0)" stroke-width="7.99219px" cx="-1237.212158203125" cy="-3063.977783203125"/><circle class="node node-id-14" r="97.1965933405603" fill="rgb(255, 255, 255)" stroke="rgb(0, 0, 0)" stroke-width="7.99219px" cx="-1366.2325439453125" cy="-3610.184326171875"/><g class="caption"><text class="caption node" text-anchor="middle" alignment-baseline="central" x="-1237.212158203125" y="-3063.977783203125" fill="rgb(51, 51, 51)" font-size="50px" font-family="&quot;Gill Sans&quot;, &quot;Gill Sans MT&quot;, Calibri, sans-serif">Transcript</text></g><circle class="node node-id-15" r="105.52328339415742" fill="rgb(255, 255, 255)" stroke="rgb(0, 0, 0)" stroke-width="7.99219px" cx="-647.0674743652344" cy="-3397.848388671875"/><g class="caption"><text class="caption node" text-anchor="middle" alignment-baseline="central" x="-1366.2325439453125" y="-3610.184326171875" fill="rgb(51, 51, 51)" font-size="50px" font-family="&quot;Gill Sans&quot;, &quot;Gill Sans MT&quot;, Calibri, sans-serif">Protein</text></g><g class="caption"><text class="caption node" text-anchor="middle" alignment-baseline="central" x="-647.0674743652344" y="-3397.848388671875" fill="rgb(51, 51, 51)" font-size="50px" font-family="&quot;Gill Sans&quot;, &quot;Gill Sans MT&quot;, Calibri, sans-serif">Pathway</text></g></g><g class="layer properties"><g class="speech-bubble node-speech-bubble" transform="translate(-798.985538482666,-1953.6319742171172) "><path class="speech-bubble-outline" transform="scale(1,1) " d="M 0 0 L -10 20 L -219.68994140625 20 A 10 10 0 0 0 -229.68994140625 30 L -229.68994140625 180 A 10 10 0 0 0 -219.68994140625 190 L 219.68994140625 190 A 10 10 0 0 0 229.68994140625 180 L 229.68994140625 30 A 10 10 0 0 0 219.68994140625 20 L 10 20 Z" fill="rgb(255, 255, 255)" stroke="rgb(0, 0, 0)" stroke-width="3px"/><text class="speech-bubble-content property-key" x="78.03955078125" y="55" alignment-baseline="central" text-anchor="end" font-size="50px" font-family="&quot;Gill Sans&quot;, &quot;Gill Sans MT&quot;, Calibri, sans-serif" xml:space="preserve">id: </text><text class="speech-bubble-content property-key" x="78.03955078125" y="105" alignment-baseline="central" text-anchor="end" font-size="50px" font-family="&quot;Gill Sans&quot;, &quot;Gill Sans MT&quot;, Calibri, sans-serif" xml:space="preserve">age: </text><text class="speech-bubble-content property-key" x="78.03955078125" y="155" alignment-baseline="central" text-anchor="end" font-size="50px" font-family="&quot;Gill Sans&quot;, &quot;Gill Sans MT&quot;, Calibri, sans-serif" xml:space="preserve">encounter_id: </text><text class="speech-bubble-content property-value" x="78.03955078125" y="55" alignment-baseline="central" font-size="50px" font-family="&quot;Gill Sans&quot;, &quot;Gill Sans MT&quot;, Calibri, sans-serif">integer</text><text class="speech-bubble-content property-value" x="78.03955078125" y="105" alignment-baseline="central" font-size="50px" font-family="&quot;Gill Sans&quot;, &quot;Gill Sans MT&quot;, Calibri, sans-serif">integer</text><text class="speech-bubble-content property-value" x="78.03955078125" y="155" alignment-baseline="central" font-size="50px" font-family="&quot;Gill Sans&quot;, &quot;Gill Sans MT&quot;, Calibri, sans-serif">string</text></g><g class="speech-bubble node-speech-bubble" transform="translate(-349.7768673760936,-2875.202450261836) "><path class="speech-bubble-outline" transform="scale(-1,-1) " d="M 0 0 L 30 20 L 420.234375 20 A 10 10 0 0 1 430.234375 30 L 430.234375 180 A 10 10 0 0 1 420.234375 190 L 30 190 A 10 10 0 0 1 20 180 L 20 30 Z" fill="rgb(255, 255, 255)" stroke="rgb(0, 0, 0)" stroke-width="3px"/><text class="speech-bubble-content property-key" x="-171.650390625" y="-155" alignment-baseline="central" text-anchor="end" font-size="50px" font-family="&quot;Gill Sans&quot;, &quot;Gill Sans MT&quot;, Calibri, sans-serif" xml:space="preserve">id: </text><text class="speech-bubble-content property-key" x="-171.650390625" y="-105" alignment-baseline="central" text-anchor="end" font-size="50px" font-family="&quot;Gill Sans&quot;, &quot;Gill Sans MT&quot;, Calibri, sans-serif" xml:space="preserve">name: </text><text class="speech-bubble-content property-key" x="-171.650390625" y="-55" alignment-baseline="central" text-anchor="end" font-size="50px" font-family="&quot;Gill Sans&quot;, &quot;Gill Sans MT&quot;, Calibri, sans-serif" xml:space="preserve">production: </text><text class="speech-bubble-content property-value" x="-171.650390625" y="-155" alignment-baseline="central" font-size="50px" font-family="&quot;Gill Sans&quot;, &quot;Gill Sans MT&quot;, Calibri, sans-serif">integer</text><text class="speech-bubble-content property-value" x="-171.650390625" y="-105" alignment-baseline="central" font-size="50px" font-family="&quot;Gill Sans&quot;, &quot;Gill Sans MT&quot;, Calibri, sans-serif">string</text><text class="speech-bubble-content property-value" x="-171.650390625" y="-55" alignment-baseline="central" font-size="50px" font-family="&quot;Gill Sans&quot;, &quot;Gill Sans MT&quot;, Calibri, sans-serif">string</text></g><g class="speech-bubble node-speech-bubble" transform="translate(118.51261165254202,-1459.4882995832672) "><path class="speech-bubble-outline" transform="scale(1,1) " d="M 0 0 L 30 20 L 376.4111328125 20 A 10 10 0 0 1 386.4111328125 30 L 386.4111328125 230 A 10 10 0 0 1 376.4111328125 240 L 30 240 A 10 10 0 0 1 20 230 L 20 30 Z" fill="rgb(255, 255, 255)" stroke="rgb(0, 0, 0)" stroke-width="3px"/><text class="speech-bubble-content property-key" x="234.7607421875" y="55" alignment-baseline="central" text-anchor="end" font-size="50px" font-family="&quot;Gill Sans&quot;, &quot;Gill Sans MT&quot;, Calibri, sans-serif" xml:space="preserve">id: </text><text class="speech-bubble-content property-key" x="234.7607421875" y="105" alignment-baseline="central" text-anchor="end" font-size="50px" font-family="&quot;Gill Sans&quot;, &quot;Gill Sans MT&quot;, Calibri, sans-serif" xml:space="preserve">t1: </text><text class="speech-bubble-content property-key" x="234.7607421875" y="155" alignment-baseline="central" text-anchor="end" font-size="50px" font-family="&quot;Gill Sans&quot;, &quot;Gill Sans MT&quot;, Calibri, sans-serif" xml:space="preserve">t2: </text><text class="speech-bubble-content property-key" x="234.7607421875" y="205" alignment-baseline="central" text-anchor="end" font-size="50px" font-family="&quot;Gill Sans&quot;, &quot;Gill Sans MT&quot;, Calibri, sans-serif" xml:space="preserve">order_id: </text><text class="speech-bubble-content property-value" x="234.7607421875" y="55" alignment-baseline="central" font-size="50px" font-family="&quot;Gill Sans&quot;, &quot;Gill Sans MT&quot;, Calibri, sans-serif">integer</text><text class="speech-bubble-content property-value" x="234.7607421875" y="105" alignment-baseline="central" font-size="50px" font-family="&quot;Gill Sans&quot;, &quot;Gill Sans MT&quot;, Calibri, sans-serif">string</text><text class="speech-bubble-content property-value" x="234.7607421875" y="155" alignment-baseline="central" font-size="50px" font-family="&quot;Gill Sans&quot;, &quot;Gill Sans MT&quot;, Calibri, sans-serif">string</text><text class="speech-bubble-content property-value" x="234.7607421875" y="205" alignment-baseline="central" font-size="50px" font-family="&quot;Gill Sans&quot;, &quot;Gill Sans MT&quot;, Calibri, sans-serif">integer</text></g><g class="speech-bubble node-speech-bubble" transform="translate(756.7661068161656,-2218.6749267578125) "><path class="speech-bubble-outline" transform="scale(1,1) " d="M 0 0 L 20 -10 L 20 -25 A 10 10 0 0 1 30 -35 L 232.9541015625 -35 A 10 10 0 0 1 242.9541015625 -25 L 242.9541015625 25 A 10 10 0 0 1 232.9541015625 35 L 30 35 A 10 10 0 0 1 20 25 L 20 10 Z" fill="rgb(255, 255, 255)" stroke="rgb(0, 0, 0)" stroke-width="3px"/><text class="speech-bubble-content property-key" x="91.3037109375" y="0" alignment-baseline="central" text-anchor="end" font-size="50px" font-family="&quot;Gill Sans&quot;, &quot;Gill Sans MT&quot;, Calibri, sans-serif" xml:space="preserve">id: </text><text class="speech-bubble-content property-value" x="91.3037109375" y="0" alignment-baseline="central" font-size="50px" font-family="&quot;Gill Sans&quot;, &quot;Gill Sans MT&quot;, Calibri, sans-serif">integer</text></g><g class="speech-bubble node-speech-bubble" transform="translate(-1361.0513633155526,-3063.977783203125) "><path class="speech-bubble-outline" transform="scale(-1,1) " d="M 0 0 L 20 -10 L 20 -50 A 10 10 0 0 1 30 -60 L 333.41796875 -60 A 10 10 0 0 1 343.41796875 -50 L 343.41796875 50 A 10 10 0 0 1 333.41796875 60 L 30 60 A 10 10 0 0 1 20 50 L 20 10 Z" fill="rgb(255, 255, 255)" stroke="rgb(0, 0, 0)" stroke-width="3px"/><text class="speech-bubble-content property-key" x="-146.650390625" y="-25" alignment-baseline="central" text-anchor="end" font-size="50px" font-family="&quot;Gill Sans&quot;, &quot;Gill Sans MT&quot;, Calibri, sans-serif" xml:space="preserve">id: </text><text class="speech-bubble-content property-key" x="-146.650390625" y="25" alignment-baseline="central" text-anchor="end" font-size="50px" font-family="&quot;Gill Sans&quot;, &quot;Gill Sans MT&quot;, Calibri, sans-serif" xml:space="preserve">rna_seq: </text><text class="speech-bubble-content property-value" x="-146.650390625" y="-25" alignment-baseline="central" font-size="50px" font-family="&quot;Gill Sans&quot;, &quot;Gill Sans MT&quot;, Calibri, sans-serif">Int</text><text class="speech-bubble-content property-value" x="-146.650390625" y="25" alignment-baseline="central" font-size="50px" font-family="&quot;Gill Sans&quot;, &quot;Gill Sans MT&quot;, Calibri, sans-serif">String</text></g></g><g class="layer overlay"><circle class="node overlay" r="113.4889723312753" stroke="none" fill="rgba(255, 255, 255, 0)" cx="-1660.4776000976562" cy="-1655.461669921875"/><circle class="node overlay" r="97.3409274235079" stroke="none" fill="rgba(255, 255, 255, 0)" cx="-798.985538482666" cy="-2046.976806640625"/><circle class="node overlay" r="137.20000598547455" stroke="none" fill="rgba(255, 255, 255, 0)" cx="-255.5874786376953" cy="-2781.0130615234375"/><circle class="node overlay" r="134.1410056453336" stroke="none" fill="rgba(255, 255, 255, 0)" cx="26.486262798309326" cy="-1551.5146484375"/><circle class="node overlay" r="228.06180623205915" stroke="none" fill="rgba(255, 255, 255, 0)" cx="532.7003955841064" cy="-2218.6749267578125"/><circle class="node overlay" r="92.23780971451711" stroke="none" fill="rgba(255, 255, 255, 0)" cx="-1115.3651123046875" cy="-2586.477783203125"/><circle class="node overlay" r="131.11024066063848" stroke="none" fill="rgba(255, 255, 255, 0)" cx="-1482.614990234375" cy="-2218.6749267578125"/><circle class="node overlay" r="146.59183850971402" stroke="none" fill="rgba(255, 255, 255, 0)" cx="-2450.5001220703125" cy="-1990.218505859375"/><circle class="node overlay" r="125.72643228326035" stroke="none" fill="rgba(255, 255, 255, 0)" cx="-2450.5001220703125" cy="-1314.7635498046875"/><circle class="node overlay" r="157.52538519355736" stroke="none" fill="rgba(255, 255, 255, 0)" cx="-832.3182067871094" cy="-1228.850341796875"/><circle class="node overlay" r="133.14213068880082" stroke="none" fill="rgba(255, 255, 255, 0)" cx="354.52386474609375" cy="-2898.931884765625"/><circle class="node overlay" r="170.17315902859266" stroke="none" fill="rgba(255, 255, 255, 0)" cx="-1839.340087890625" cy="-2815.8956298828125"/><circle class="node overlay" r="79.12329082428336" stroke="none" fill="rgba(255, 255, 255, 0)" cx="-695.9263916015625" cy="-2728.47900390625"/><circle class="node ring" r="118.4889723312753" fill="none" stroke="rgba(255, 255, 255, 0)" stroke-width="10px" cx="-1660.4776000976562" cy="-1655.461669921875"/><circle class="node ring" r="102.3409274235079" fill="none" stroke="rgba(255, 255, 255, 0)" stroke-width="10px" cx="-798.985538482666" cy="-2046.976806640625"/><circle class="node ring" r="142.20000598547455" fill="none" stroke="rgba(255, 255, 255, 0)" stroke-width="10px" cx="-255.5874786376953" cy="-2781.0130615234375"/><circle class="node ring" r="139.1410056453336" fill="none" stroke="rgba(255, 255, 255, 0)" stroke-width="10px" cx="26.486262798309326" cy="-1551.5146484375"/><circle class="node ring" r="233.06180623205915" fill="none" stroke="rgba(255, 255, 255, 0)" stroke-width="10px" cx="532.7003955841064" cy="-2218.6749267578125"/><circle class="node ring" r="97.23780971451711" fill="none" stroke="rgba(255, 255, 255, 0)" stroke-width="10px" cx="-1115.3651123046875" cy="-2586.477783203125"/><circle class="node ring" r="136.11024066063848" fill="none" stroke="rgba(255, 255, 255, 0)" stroke-width="10px" cx="-1482.614990234375" cy="-2218.6749267578125"/><circle class="node ring" r="151.59183850971402" fill="none" stroke="rgba(255, 255, 255, 0)" stroke-width="10px" cx="-2450.5001220703125" cy="-1990.218505859375"/><circle class="node ring" r="130.72643228326035" fill="none" stroke="rgba(255, 255, 255, 0)" stroke-width="10px" cx="-2450.5001220703125" cy="-1314.7635498046875"/><circle class="node ring" r="162.52538519355736" fill="none" stroke="rgba(255, 255, 255, 0)" stroke-width="10px" cx="-832.3182067871094" cy="-1228.850341796875"/><circle class="node ring" r="138.14213068880082" fill="none" stroke="rgba(255, 255, 255, 0)" stroke-width="10px" cx="354.52386474609375" cy="-2898.931884765625"/><circle class="node ring" r="175.17315902859266" fill="none" stroke="rgba(255, 255, 255, 0)" stroke-width="10px" cx="-1839.340087890625" cy="-2815.8956298828125"/><circle class="node ring" r="84.12329082428336" fill="none" stroke="rgba(255, 255, 255, 0)" stroke-width="10px" cx="-695.9263916015625" cy="-2728.47900390625"/><path class="relationship overlay" fill="rgba(255, 255, 255, 0)" stroke="rgba(255, 255, 255, 0)" stroke-width="10px" transform="translate(-1660.4776000976562,-1655.461669921875) rotate(-24.43997702330187)" d="M 124.4889723312753 4 L 805.942684664088 4 L 805.942684664088 16 L 837.942684664088 0 L 805.942684664088 -16 L 805.942684664088 -4 L 124.4889723312753 -4 Z"/><path class="relationship overlay" fill="rgba(255, 255, 255, 0)" stroke="rgba(255, 255, 255, 0)" stroke-width="10px" transform="translate(-798.985538482666,-2046.976806640625) rotate(-53.48790654554865)" d="M 108.3409274235079 4 L 733.085642059902 4 L 733.085642059902 16 L 765.085642059902 0 L 733.085642059902 -16 L 733.085642059902 -4 L 108.3409274235079 -4 Z"/><path class="relationship overlay" fill="rgba(255, 255, 255, 0)" stroke="rgba(255, 255, 255, 0)" stroke-width="10px" transform="translate(532.7003955841064,-2218.6749267578125) rotate(172.65322067095565)" d="M 239.06180623205915 4 L 1202.3681518051492 4 L 1202.3681518051492 16 L 1234.3681518051492 0 L 1202.3681518051492 -16 L 1202.3681518051492 -4 L 239.06180623205915 -4 Z"/><path class="relationship overlay" fill="rgba(255, 255, 255, 0)" stroke="rgba(255, 255, 255, 0)" stroke-width="10px" transform="translate(26.486262798309326,-1551.5146484375) rotate(-149.0271048445663)" d="M 145.1410056453336 4 L 822.4084921667386 4 L 822.4084921667386 16 L 854.4084921667386 0 L 822.4084921667386 -16 L 822.4084921667386 -4 L 145.1410056453336 -4 Z"/><path class="relationship overlay" fill="rgba(255, 255, 255, 0)" stroke="rgba(255, 255, 255, 0)" stroke-width="10px" transform="translate(-1660.4776000976562,-1655.461669921875) rotate(-157.03613286732627)" d="M 124.4889723312753 4 L 668.427814196984 4 L 668.427814196984 16 L 700.427814196984 0 L 668.427814196984 -16 L 668.427814196984 -4 L 124.4889723312753 -4 Z"/><path class="relationship overlay" fill="rgba(255, 255, 255, 0)" stroke="rgba(255, 255, 255, 0)" stroke-width="10px" transform="translate(-1660.4776000976562,-1655.461669921875) rotate(156.67182343597662)" d="M 124.4889723312753 4 L 691.6286073808435 4 L 691.6286073808435 16 L 723.6286073808435 0 L 691.6286073808435 -16 L 691.6286073808435 -4 L 124.4889723312753 -4 Z"/><path class="relationship overlay" fill="rgba(255, 255, 255, 0)" stroke="rgba(255, 255, 255, 0)" stroke-width="10px" transform="translate(-1660.4776000976562,-1655.461669921875) rotate(27.254440551245068)" d="M 124.4889723312753 4 L 731.0567131816044 4 L 731.0567131816044 16 L 763.0567131816044 0 L 731.0567131816044 -16 L 731.0567131816044 -4 L 124.4889723312753 -4 Z"/><path class="relationship overlay" fill="rgba(255, 255, 255, 0)" stroke="rgba(255, 255, 255, 0)" stroke-width="10px" transform="translate(532.7003955841064,-2218.6749267578125) rotate(-144.49721283600502)" d="M 239.06180623205915 4 L 788.1088034636646 4 L 788.1088034636646 16 L 820.1088034636646 0 L 788.1088034636646 -16 L 788.1088034636646 -4 L 239.06180623205915 -4 Z"/><path class="relationship overlay" fill="rgba(255, 255, 255, 0)" stroke="rgba(255, 255, 255, 0)" stroke-width="10px" transform="translate(532.7003955841064,-2218.6749267578125) rotate(127.18975055708243)" d="M 239.06180623205915 4 L 660.3287461669414 4 L 660.3287461669414 16 L 692.3287461669414 0 L 660.3287461669414 -16 L 660.3287461669414 -4 L 239.06180623205915 -4 Z"/><path class="relationship overlay" fill="rgba(255, 255, 255, 0)" stroke="rgba(255, 255, 255, 0)" stroke-width="10px" transform="translate(-798.985538482666,-2046.976806640625) rotate(-120.38863999514155)" d="M 108.3409274235079 4 L 490.18791604650016 4 L 490.18791604650016 16 L 522.1879160465002 0 L 490.18791604650016 -16 L 490.18791604650016 -4 L 108.3409274235079 -4 Z"/><path class="relationship overlay" fill="rgba(255, 255, 255, 0)" stroke="rgba(255, 255, 255, 0)" stroke-width="10px" transform="translate(-798.985538482666,-2046.976806640625) rotate(-165.90139773666667)" d="M 108.3409274235079 4 L 530.7510731835235 4 L 530.7510731835235 16 L 562.7510731835235 0 L 530.7510731835235 -16 L 530.7510731835235 -4 L 108.3409274235079 -4 Z"/><path class="relationship overlay" fill="rgba(255, 255, 255, 0)" stroke="rgba(255, 255, 255, 0)" stroke-width="10px" transform="translate(-255.5874786376953,-2781.0130615234375) rotate(-10.938923110335308)" d="M 148.20000598547455 4 L 445.26007416759813 4 L 445.26007416759813 16 L 477.26007416759813 0 L 445.26007416759813 -16 L 445.26007416759813 -4 L 148.20000598547455 -4 Z"/><path class="relationship overlay" fill="rgba(255, 255, 255, 0)" stroke="rgba(255, 255, 255, 0)" stroke-width="10px" transform="translate(-1115.3651123046875,-2586.477783203125) rotate(-162.4172979164627)" d="M 103.23780971451711 4 L 546.2821152633194 4 L 546.2821152633194 16 L 578.2821152633194 0 L 546.2821152633194 -16 L 546.2821152633194 -4 L 103.23780971451711 -4 Z"/><path class="relationship overlay" fill="rgba(255, 255, 255, 0)" stroke="rgba(255, 255, 255, 0)" stroke-width="10px" transform="translate(-1482.614990234375,-2218.6749267578125) rotate(-120.85023774072941)" d="M 142.11024066063848 4 L 482.47428295547763 4 L 482.47428295547763 16 L 514.4742829554776 0 L 482.47428295547763 -16 L 482.47428295547763 -4 L 142.11024066063848 -4 Z"/><path class="relationship overlay" fill="rgba(255, 255, 255, 0)" stroke="rgba(255, 255, 255, 0)" stroke-width="10px" transform="translate(-1115.3651123046875,-2586.477783203125) rotate(-18.703559842269847)" d="M 103.23780971451711 4 L 320.7008132015157 4 L 320.7008132015157 16 L 352.7008132015157 0 L 320.7008132015157 -16 L 320.7008132015157 -4 L 103.23780971451711 -4 Z"/><circle class="node overlay" r="127.83530011242773" stroke="none" fill="rgba(255, 255, 255, 0)" cx="-1237.212158203125" cy="-3063.977783203125"/><circle class="node ring" r="132.83530011242772" fill="none" stroke="rgba(255, 255, 255, 0)" stroke-width="10px" cx="-1237.212158203125" cy="-3063.977783203125"/><path class="relationship overlay" fill="rgba(255, 255, 255, 0)" stroke="rgba(255, 255, 255, 0)" stroke-width="10px" transform="translate(26.486262798309326,-1551.5146484375) rotate(159.40813011038037)" d="M 145.1410056453336 4 L 716.8934786629516 4 L 716.8934786629516 16 L 748.8934786629516 0 L 716.8934786629516 -16 L 716.8934786629516 -4 L 145.1410056453336 -4 Z"/><path class="relationship overlay" fill="rgba(255, 255, 255, 0)" stroke="rgba(255, 255, 255, 0)" stroke-width="10px" transform="translate(-1115.3651123046875,-2586.477783203125) rotate(-104.31507681588364)" d="M 103.23780971451711 4 L 321.9658287358897 4 L 321.9658287358897 16 L 353.9658287358897 0 L 321.9658287358897 -16 L 321.9658287358897 -4 L 103.23780971451711 -4 Z"/><circle class="node overlay" r="101.1926883405603" stroke="none" fill="rgba(255, 255, 255, 0)" cx="-1366.2325439453125" cy="-3610.184326171875"/><circle class="node ring" r="106.1926883405603" fill="none" stroke="rgba(255, 255, 255, 0)" stroke-width="10px" cx="-1366.2325439453125" cy="-3610.184326171875"/><path class="relationship overlay" fill="rgba(255, 255, 255, 0)" stroke="rgba(255, 255, 255, 0)" stroke-width="10px" transform="translate(-1237.212158203125,-3063.977783203125) rotate(-103.290326312083)" d="M 138.83530011242772 4 L 417.0450932805061 4 L 417.0450932805061 16 L 449.0450932805061 0 L 417.0450932805061 -16 L 417.0450932805061 -4 L 138.83530011242772 -4 Z"/><circle class="node overlay" r="109.51937839415741" stroke="none" fill="rgba(255, 255, 255, 0)" cx="-647.0674743652344" cy="-3397.848388671875"/><circle class="node ring" r="114.51937839415741" fill="none" stroke="rgba(255, 255, 255, 0)" stroke-width="10px" cx="-647.0674743652344" cy="-3397.848388671875"/><path class="relationship overlay" fill="rgba(255, 255, 255, 0)" stroke="rgba(255, 255, 255, 0)" stroke-width="10px" transform="translate(-1115.3651123046875,-2586.477783203125) rotate(-60.00780719303577)" d="M 103.23780971451711 4 L 784.2970054924594 4 L 784.2970054924594 16 L 816.2970054924594 0 L 784.2970054924594 -16 L 784.2970054924594 -4 L 103.23780971451711 -4 Z"/><path class="relationship overlay" fill="rgba(255, 255, 255, 0)" stroke="rgba(255, 255, 255, 0)" stroke-width="10px" transform="translate(-1366.2325439453125,-3610.184326171875) rotate(16.449415121354512)" d="M 112.1926883405603 4 L 597.3372396723383 4 L 597.3372396723383 16 L 629.3372396723383 0 L 597.3372396723383 -16 L 597.3372396723383 -4 L 112.1926883405603 -4 Z"/></g></svg>