<svg xmlns="http://www.w3.org/2000/svg" class="graphdiagram" viewBox="-2799.2202529344295 -3093.346855321412 4279.110623784685 2165.969575002125"><g class="layer relationships"><g class="related-pair"><g class="relationship" transform="translate(-1577.4508056640625,-1623.41162109375) rotate(-26.954502935377004)"><path class="relationship" d="M 124.4889723312753 4 L 637.7131180522568 4 L 637.7131180522568 16 L 669.7131180522568 0 L 637.7131180522568 -16 L 637.7131180522568 -4 L 124.4889723312753 -4 Z" fill="rgb(0, 0, 0)" stroke="rgb(51, 51, 51)" stroke-width="0px"/></g></g><g class="related-pair"><g class="relationship" transform="translate(-884.124210357666,-1975.9859619140625) rotate(-57.45713620002545)"><path class="relationship" d="M 108.11104817301381 4 L 760.0931046022527 4 L 760.0931046022527 16 L 792.0931046022527 0 L 760.0931046022527 -16 L 760.0931046022527 -4 L 108.11104817301381 -4 Z" fill="rgb(0, 0, 0)" stroke="rgb(51, 51, 51)" stroke-width="0px"/><text class="type" text-anchor="middle" baseline-shift="30%" alignment-baseline="alphabetic" x="434.10207638763325" y="0" font-size="50px" font-family="&quot;Gill Sans&quot;, &quot;Gill Sans MT&quot;, Calibri, sans-serif">takes</text></g></g><g class="related-pair"><g class="relationship" transform="translate(532.7003955841064,-2218.6749267578125) rotate(170.2800921650728)"><path class="relationship" d="M 239.06180623205915 4 L 1297.3484808778007 4 L 1297.3484808778007 16 L 1329.3484808778007 0 L 1297.3484808778007 -16 L 1297.3484808778007 -4 L 239.06180623205915 -4 Z" fill="rgb(0, 0, 0)" stroke="rgb(51, 51, 51)" stroke-width="0px"/><text class="type" text-anchor="middle" baseline-shift="30%" alignment-baseline="alphabetic" transform="rotate(180)" x="-768.2051435549299" y="0" font-size="50px" font-family="&quot;Gill Sans&quot;, &quot;Gill Sans MT&quot;, Calibri, sans-serif">takes_care_of</text></g></g><g class="related-pair"><g class="relationship" transform="translate(129.24206161499023,-1353.4073486328125) rotate(-148.43481442159464)"><path class="relationship" d="M 199.5261633135253 4 L 1049.2229380928138 4 L 1049.2229380928138 16 L 1081.2229380928138 0 L 1049.2229380928138 -16 L 1049.2229380928138 -4 L 199.5261633135253 -4 Z" fill="rgb(0, 0, 0)" stroke="rgb(51, 51, 51)" stroke-width="0px"/><text class="type" text-anchor="middle" baseline-shift="30%" alignment-baseline="alphabetic" transform="rotate(180)" x="-624.3745507031696" y="0" font-size="50px" font-family="&quot;Gill Sans&quot;, &quot;Gill Sans MT&quot;, Calibri, sans-serif">lab_results_of</text></g></g><g class="related-pair"><g class="relationship" transform="translate(-1577.4508056640625,-1623.41162109375) rotate(-149.41417623748092)"><path class="relationship" d="M 124.4889723312753 4 L 503.3221527497906 4 L 503.3221527497906 16 L 535.3221527497906 0 L 503.3221527497906 -16 L 503.3221527497906 -4 L 124.4889723312753 -4 Z" fill="rgb(0, 0, 0)" stroke="rgb(51, 51, 51)" stroke-width="0px"/></g></g><g class="related-pair"><g class="relationship" transform="translate(-1577.4508056640625,-1623.41162109375) rotate(155.6464993406657)"><path class="relationship" d="M 124.4889723312753 4 L 486.0433292554495 4 L 486.0433292554495 16 L 518.0433292554495 0 L 486.0433292554495 -16 L 486.0433292554495 -4 L 124.4889723312753 -4 Z" fill="rgb(0, 0, 0)" stroke="rgb(51, 51, 51)" stroke-width="0px"/></g></g><g class="related-pair"><g class="relationship" transform="translate(-1577.4508056640625,-1623.41162109375) rotate(63.32160498110905)"><path class="relationship" d="M 124.4889723312753 4 L 396.79540501282986 4 L 396.79540501282986 16 L 428.79540501282986 0 L 396.79540501282986 -16 L 396.79540501282986 -4 L 124.4889723312753 -4 Z" fill="rgb(0, 0, 0)" stroke="rgb(51, 51, 51)" stroke-width="0px"/></g></g><g class="related-pair"><g class="relationship" transform="translate(532.7003955841064,-2218.6749267578125) rotate(-148.8810868601663)"><path class="relationship" d="M 239.06180623205915 4 L 883.9467486545955 4 L 883.9467486545955 16 L 915.9467486545955 0 L 883.9467486545955 -16 L 883.9467486545955 -4 L 239.06180623205915 -4 Z" fill="rgb(0, 0, 0)" stroke="rgb(51, 51, 51)" stroke-width="0px"/><text class="type" text-anchor="middle" baseline-shift="30%" alignment-baseline="alphabetic" transform="rotate(180)" x="-561.5042774433273" y="0" font-size="50px" font-family="&quot;Gill Sans&quot;, &quot;Gill Sans MT&quot;, Calibri, sans-serif">prescribes</text></g></g><g class="related-pair"><g class="relationship" transform="translate(532.7003955841064,-2218.6749267578125) rotate(114.9987727154095)"><path class="relationship" d="M 239.06180623205915 4 L 723.1814406173526 4 L 723.1814406173526 16 L 755.1814406173526 0 L 723.1814406173526 -16 L 723.1814406173526 -4 L 239.06180623205915 -4 Z" fill="rgb(0, 0, 0)" stroke="rgb(51, 51, 51)" stroke-width="0px"/><text class="type" text-anchor="middle" baseline-shift="30%" alignment-baseline="alphabetic" transform="rotate(180)" x="-481.12162342470583" y="0" font-size="50px" font-family="&quot;Gill Sans&quot;, &quot;Gill Sans MT&quot;, Calibri, sans-serif">orders</text></g></g><g class="related-pair"><g class="relationship" transform="translate(-884.124210357666,-1975.9859619140625) rotate(-114.84389108725277)"><path class="relationship" d="M 108.11104817301381 4 L 547.0026758793814 4 L 547.0026758793814 16 L 579.0026758793814 0 L 547.0026758793814 -16 L 547.0026758793814 -4 L 108.11104817301381 -4 Z" fill="rgb(0, 0, 0)" stroke="rgb(51, 51, 51)" stroke-width="0px"/></g></g><g class="related-pair"><g class="relationship" transform="translate(-884.124210357666,-1975.9859619140625) rotate(-157.55323994058998)"><path class="relationship" d="M 108.11104817301381 4 L 576.0526503195942 4 L 576.0526503195942 16 L 608.0526503195942 0 L 576.0526503195942 -16 L 576.0526503195942 -4 L 108.11104817301381 -4 Z" fill="rgb(0, 0, 0)" stroke="rgb(51, 51, 51)" stroke-width="0px"/></g></g><g class="related-pair"><g class="relationship" transform="translate(-378.31195068359375,-2768.6429443359375) rotate(-170.6200026258916)"><path class="relationship" d="M 148.20000598547455 4 L 273.62111114643534 4 L 273.62111114643534 16 L 305.62111114643534 0 L 273.62111114643534 -16 L 273.62111114643534 -4 L 148.20000598547455 -4 Z" fill="rgb(0, 0, 0)" stroke="rgb(51, 51, 51)" stroke-width="0px"/></g></g></g><g class="layer nodes"><circle class="node node-id-0" r="109.49287733127531" fill="rgb(255, 255, 255)" stroke="rgb(0, 0, 0)" stroke-width="7.99219px" cx="-1577.4508056640625" cy="-1623.41162109375"/><circle class="node node-id-1" r="93.11495317301382" fill="rgb(255, 255, 255)" stroke="rgb(0, 0, 0)" stroke-width="7.99219px" cx="-884.124210357666" cy="-1975.9859619140625"/><circle class="node node-id-2" r="133.20391098547455" fill="rgb(255, 255, 255)" stroke="rgb(0, 0, 0)" stroke-width="7.99219px" cx="-378.31195068359375" cy="-2768.6429443359375"/><circle class="node node-id-3" r="184.5300683135253" fill="rgb(255, 255, 255)" stroke="rgb(0, 0, 0)" stroke-width="7.99219px" cx="129.24206161499023" cy="-1353.4073486328125"/><circle class="node node-id-4" r="224.06571123205916" fill="rgb(255, 255, 255)" stroke="rgb(0, 0, 0)" stroke-width="7.99219px" cx="532.7003955841064" cy="-2218.6749267578125"/><circle class="node node-id-7" r="88.24171471451712" fill="rgb(255, 255, 255)" stroke="rgb(0, 0, 0)" stroke-width="7.99219px" cx="-1170.7657470703125" cy="-2595.089111328125"/><circle class="node node-id-8" r="127.11414566063847" fill="rgb(255, 255, 255)" stroke="rgb(0, 0, 0)" stroke-width="7.99219px" cx="-1577.4508056640625" cy="-2262.416748046875"/><circle class="node node-id-9" r="142.59574350971403" fill="rgb(255, 255, 255)" stroke="rgb(0, 0, 0)" stroke-width="7.99219px" cx="-2173.958251953125" cy="-1975.9859619140625"/><g class="caption"><text class="caption node" text-anchor="middle" alignment-baseline="central" x="-1577.4508056640625" y="-1623.41162109375" fill="rgb(51, 51, 51)" font-size="50px" font-family="&quot;Gill Sans&quot;, &quot;Gill Sans MT&quot;, Calibri, sans-serif">REDCap</text></g><g class="caption"><text class="caption node" text-anchor="middle" alignment-baseline="central" x="-884.124210357666" y="-1975.9859619140625" fill="rgb(51, 51, 51)" font-size="50px" font-family="&quot;Gill Sans&quot;, &quot;Gill Sans MT&quot;, Calibri, sans-serif">patient</text></g><g class="caption"><text class="caption node" text-anchor="middle" alignment-baseline="central" x="-378.31195068359375" y="-2768.6429443359375" fill="rgb(51, 51, 51)" font-size="50px" font-family="&quot;Gill Sans&quot;, &quot;Gill Sans MT&quot;, Calibri, sans-serif">Medication</text></g><g class="caption"><text class="caption node" text-anchor="middle" alignment-baseline="central" x="129.24206161499023" y="-1353.4073486328125" fill="rgb(51, 51, 51)" font-size="50px" font-family="&quot;Gill Sans&quot;, &quot;Gill Sans MT&quot;, Calibri, sans-serif">MicoTestResults</text></g><g class="caption"><text class="caption node" text-anchor="middle" alignment-baseline="central" x="532.7003955841064" y="-2218.6749267578125" fill="rgb(51, 51, 51)" font-size="50px" font-family="&quot;Gill Sans&quot;, &quot;Gill Sans MT&quot;, Calibri, sans-serif">HealthCareProvider</text></g><g class="caption"><text class="caption node" text-anchor="middle" alignment-baseline="central" x="-1170.7657470703125" y="-2595.089111328125" fill="rgb(51, 51, 51)" font-size="50px" font-family="&quot;Gill Sans&quot;, &quot;Gill Sans MT&quot;, Calibri, sans-serif">Genes</text></g><g class="caption"><text class="caption node" text-anchor="middle" alignment-baseline="central" x="-1577.4508056640625" y="-2262.416748046875" fill="rgb(51, 51, 51)" font-size="50px" font-family="&quot;Gill Sans&quot;, &quot;Gill Sans MT&quot;, Calibri, sans-serif">Symptoms</text></g><g class="caption"><text class="caption node" text-anchor="middle" alignment-baseline="central" x="-2173.958251953125" y="-1975.9859619140625" fill="rgb(51, 51, 51)" font-size="50px" font-family="&quot;Gill Sans&quot;, &quot;Gill Sans MT&quot;, Calibri, sans-serif">U19SCRIPT</text></g><circle class="node node-id-9" r="121.73033728326035" fill="rgb(255, 255, 255)" stroke="rgb(0, 0, 0)" stroke-width="7.99219px" cx="-2173.958251953125" cy="-1353.4073486328125"/><g class="caption"><text class="caption node" text-anchor="middle" alignment-baseline="central" x="-2173.958251953125" y="-1353.4073486328125" fill="rgb(51, 51, 51)" font-size="50px" font-family="&quot;Gill Sans&quot;, &quot;Gill Sans MT&quot;, Calibri, sans-serif">TechCore</text></g><circle class="node node-id-9" r="153.52929019355736" fill="rgb(255, 255, 255)" stroke="rgb(0, 0, 0)" stroke-width="7.99219px" cx="-1309.2644653320312" cy="-1089.68115234375"/><g class="caption"><text class="caption node" text-anchor="middle" alignment-baseline="central" x="-1309.2644653320312" y="-1089.68115234375" fill="rgb(51, 51, 51)" font-size="50px" font-family="&quot;Gill Sans&quot;, &quot;Gill Sans MT&quot;, Calibri, sans-serif">Microbiology</text></g><circle class="node node-id-10" r="129.14603568880082" fill="rgb(255, 255, 255)" stroke="rgb(0, 0, 0)" stroke-width="7.99219px" cx="-822.0614624023438" cy="-2841.946044921875"/><g class="caption"><text class="caption node" text-anchor="middle" alignment-baseline="central" x="-822.0614624023438" y="-2841.946044921875" fill="rgb(51, 51, 51)" font-size="50px" font-family="&quot;Gill Sans&quot;, &quot;Gill Sans MT&quot;, Calibri, sans-serif">SideEffects</text></g></g><g class="layer properties"><g class="speech-bubble node-speech-bubble" transform="translate(-884.124210357666,-1882.8710087410486) "><path class="speech-bubble-outline" transform="scale(1,1) " d="M 0 0 L -10 20 L -219.68994140625 20 A 10 10 0 0 0 -229.68994140625 30 L -229.68994140625 180 A 10 10 0 0 0 -219.68994140625 190 L 219.68994140625 190 A 10 10 0 0 0 229.68994140625 180 L 229.68994140625 30 A 10 10 0 0 0 219.68994140625 20 L 10 20 Z" fill="rgb(255, 255, 255)" stroke="rgb(0, 0, 0)" stroke-width="3px"/><text class="speech-bubble-content property-key" x="78.03955078125" y="55" alignment-baseline="central" text-anchor="end" font-size="50px" font-family="&quot;Gill Sans&quot;, &quot;Gill Sans MT&quot;, Calibri, sans-serif" xml:space="preserve">id: </text><text class="speech-bubble-content property-key" x="78.03955078125" y="105" alignment-baseline="central" text-anchor="end" font-size="50px" font-family="&quot;Gill Sans&quot;, &quot;Gill Sans MT&quot;, Calibri, sans-serif" xml:space="preserve">age: </text><text class="speech-bubble-content property-key" x="78.03955078125" y="155" alignment-baseline="central" text-anchor="end" font-size="50px" font-family="&quot;Gill Sans&quot;, &quot;Gill Sans MT&quot;, Calibri, sans-serif" xml:space="preserve">encounter_id: </text><text class="speech-bubble-content property-value" x="78.03955078125" y="55" alignment-baseline="central" font-size="50px" font-family="&quot;Gill Sans&quot;, &quot;Gill Sans MT&quot;, Calibri, sans-serif">integer</text><text class="speech-bubble-content property-value" x="78.03955078125" y="105" alignment-baseline="central" font-size="50px" font-family="&quot;Gill Sans&quot;, &quot;Gill Sans MT&quot;, Calibri, sans-serif">integer</text><text class="speech-bubble-content property-value" x="78.03955078125" y="155" alignment-baseline="central" font-size="50px" font-family="&quot;Gill Sans&quot;, &quot;Gill Sans MT&quot;, Calibri, sans-serif">string</text></g><g class="speech-bubble node-speech-bubble" transform="translate(-378.31195068359375,-2901.846855321412) "><path class="speech-bubble-outline" transform="scale(1,-1) " d="M 0 0 L -10 20 L -195.1171875 20 A 10 10 0 0 0 -205.1171875 30 L -205.1171875 180 A 10 10 0 0 0 -195.1171875 190 L 195.1171875 190 A 10 10 0 0 0 205.1171875 180 L 205.1171875 30 A 10 10 0 0 0 195.1171875 20 L 10 20 Z" fill="rgb(255, 255, 255)" stroke="rgb(0, 0, 0)" stroke-width="3px"/><text class="speech-bubble-content property-key" x="53.466796875" y="-155" alignment-baseline="central" text-anchor="end" font-size="50px" font-family="&quot;Gill Sans&quot;, &quot;Gill Sans MT&quot;, Calibri, sans-serif" xml:space="preserve">id: </text><text class="speech-bubble-content property-key" x="53.466796875" y="-105" alignment-baseline="central" text-anchor="end" font-size="50px" font-family="&quot;Gill Sans&quot;, &quot;Gill Sans MT&quot;, Calibri, sans-serif" xml:space="preserve">name: </text><text class="speech-bubble-content property-key" x="53.466796875" y="-55" alignment-baseline="central" text-anchor="end" font-size="50px" font-family="&quot;Gill Sans&quot;, &quot;Gill Sans MT&quot;, Calibri, sans-serif" xml:space="preserve">production: </text><text class="speech-bubble-content property-value" x="53.466796875" y="-155" alignment-baseline="central" font-size="50px" font-family="&quot;Gill Sans&quot;, &quot;Gill Sans MT&quot;, Calibri, sans-serif">integer</text><text class="speech-bubble-content property-value" x="53.466796875" y="-105" alignment-baseline="central" font-size="50px" font-family="&quot;Gill Sans&quot;, &quot;Gill Sans MT&quot;, Calibri, sans-serif">string</text><text class="speech-bubble-content property-value" x="53.466796875" y="-55" alignment-baseline="central" font-size="50px" font-family="&quot;Gill Sans&quot;, &quot;Gill Sans MT&quot;, Calibri, sans-serif">string</text></g><g class="speech-bubble node-speech-bubble" transform="translate(129.24206161499023,-1168.8772803192871) "><path class="speech-bubble-outline" transform="scale(1,1) " d="M 0 0 L -10 20 L -173.20556640625 20 A 10 10 0 0 0 -183.20556640625 30 L -183.20556640625 230 A 10 10 0 0 0 -173.20556640625 240 L 173.20556640625 240 A 10 10 0 0 0 183.20556640625 230 L 183.20556640625 30 A 10 10 0 0 0 173.20556640625 20 L 10 20 Z" fill="rgb(255, 255, 255)" stroke="rgb(0, 0, 0)" stroke-width="3px"/><text class="speech-bubble-content property-key" x="31.55517578125" y="55" alignment-baseline="central" text-anchor="end" font-size="50px" font-family="&quot;Gill Sans&quot;, &quot;Gill Sans MT&quot;, Calibri, sans-serif" xml:space="preserve">id: </text><text class="speech-bubble-content property-key" x="31.55517578125" y="105" alignment-baseline="central" text-anchor="end" font-size="50px" font-family="&quot;Gill Sans&quot;, &quot;Gill Sans MT&quot;, Calibri, sans-serif" xml:space="preserve">t1: </text><text class="speech-bubble-content property-key" x="31.55517578125" y="155" alignment-baseline="central" text-anchor="end" font-size="50px" font-family="&quot;Gill Sans&quot;, &quot;Gill Sans MT&quot;, Calibri, sans-serif" xml:space="preserve">t2: </text><text class="speech-bubble-content property-key" x="31.55517578125" y="205" alignment-baseline="central" text-anchor="end" font-size="50px" font-family="&quot;Gill Sans&quot;, &quot;Gill Sans MT&quot;, Calibri, sans-serif" xml:space="preserve">order_id: </text><text class="speech-bubble-content property-value" x="31.55517578125" y="55" alignment-baseline="central" font-size="50px" font-family="&quot;Gill Sans&quot;, &quot;Gill Sans MT&quot;, Calibri, sans-serif">integer</text><text class="speech-bubble-content property-value" x="31.55517578125" y="105" alignment-baseline="central" font-size="50px" font-family="&quot;Gill Sans&quot;, &quot;Gill Sans MT&quot;, Calibri, sans-serif">string</text><text class="speech-bubble-content property-value" x="31.55517578125" y="155" alignment-baseline="central" font-size="50px" font-family="&quot;Gill Sans&quot;, &quot;Gill Sans MT&quot;, Calibri, sans-serif">string</text><text class="speech-bubble-content property-value" x="31.55517578125" y="205" alignment-baseline="central" font-size="50px" font-family="&quot;Gill Sans&quot;, &quot;Gill Sans MT&quot;, Calibri, sans-serif">integer</text></g><g class="speech-bubble node-speech-bubble" transform="translate(756.7661068161656,-2218.6749267578125) "><path class="speech-bubble-outline" transform="scale(1,1) " d="M 0 0 L 20 -10 L 20 -25 A 10 10 0 0 1 30 -35 L 232.9541015625 -35 A 10 10 0 0 1 242.9541015625 -25 L 242.9541015625 25 A 10 10 0 0 1 232.9541015625 35 L 30 35 A 10 10 0 0 1 20 25 L 20 10 Z" fill="rgb(255, 255, 255)" stroke="rgb(0, 0, 0)" stroke-width="3px"/><text class="speech-bubble-content property-key" x="91.3037109375" y="0" alignment-baseline="central" text-anchor="end" font-size="50px" font-family="&quot;Gill Sans&quot;, &quot;Gill Sans MT&quot;, Calibri, sans-serif" xml:space="preserve">id: </text><text class="speech-bubble-content property-value" x="91.3037109375" y="0" alignment-baseline="central" font-size="50px" font-family="&quot;Gill Sans&quot;, &quot;Gill Sans MT&quot;, Calibri, sans-serif">integer</text></g></g><g class="layer overlay"><circle class="node overlay" r="113.4889723312753" stroke="none" fill="rgba(255, 255, 255, 0)" cx="-1577.4508056640625" cy="-1623.41162109375"/><circle class="node overlay" r="97.11104817301381" stroke="none" fill="rgba(255, 255, 255, 0)" cx="-884.124210357666" cy="-1975.9859619140625"/><circle class="node overlay" r="137.20000598547455" stroke="none" fill="rgba(255, 255, 255, 0)" cx="-378.31195068359375" cy="-2768.6429443359375"/><circle class="node overlay" r="188.5261633135253" stroke="none" fill="rgba(255, 255, 255, 0)" cx="129.24206161499023" cy="-1353.4073486328125"/><circle class="node overlay" r="228.06180623205915" stroke="none" fill="rgba(255, 255, 255, 0)" cx="532.7003955841064" cy="-2218.6749267578125"/><circle class="node overlay" r="92.23780971451711" stroke="none" fill="rgba(255, 255, 255, 0)" cx="-1170.7657470703125" cy="-2595.089111328125"/><circle class="node overlay" r="131.11024066063848" stroke="none" fill="rgba(255, 255, 255, 0)" cx="-1577.4508056640625" cy="-2262.416748046875"/><circle class="node overlay" r="146.59183850971402" stroke="none" fill="rgba(255, 255, 255, 0)" cx="-2173.958251953125" cy="-1975.9859619140625"/><circle class="node ring" r="118.4889723312753" fill="none" stroke="rgba(255, 255, 255, 0)" stroke-width="10px" cx="-1577.4508056640625" cy="-1623.41162109375"/><circle class="node ring" r="102.11104817301381" fill="none" stroke="rgba(255, 255, 255, 0)" stroke-width="10px" cx="-884.124210357666" cy="-1975.9859619140625"/><circle class="node ring" r="142.20000598547455" fill="none" stroke="rgba(255, 255, 255, 0)" stroke-width="10px" cx="-378.31195068359375" cy="-2768.6429443359375"/><circle class="node ring" r="193.5261633135253" fill="none" stroke="rgba(255, 255, 255, 0)" stroke-width="10px" cx="129.24206161499023" cy="-1353.4073486328125"/><circle class="node ring" r="233.06180623205915" fill="none" stroke="rgba(255, 255, 255, 0)" stroke-width="10px" cx="532.7003955841064" cy="-2218.6749267578125"/><circle class="node ring" r="97.23780971451711" fill="none" stroke="rgba(255, 255, 255, 0)" stroke-width="10px" cx="-1170.7657470703125" cy="-2595.089111328125"/><circle class="node ring" r="136.11024066063848" fill="none" stroke="rgba(255, 255, 255, 0)" stroke-width="10px" cx="-1577.4508056640625" cy="-2262.416748046875"/><circle class="node ring" r="151.59183850971402" fill="none" stroke="rgba(255, 255, 255, 0)" stroke-width="10px" cx="-2173.958251953125" cy="-1975.9859619140625"/><path class="relationship overlay" fill="rgba(255, 255, 255, 0)" stroke="rgba(255, 255, 255, 0)" stroke-width="10px" transform="translate(-1577.4508056640625,-1623.41162109375) rotate(-26.954502935377004)" d="M 124.4889723312753 4 L 637.7131180522568 4 L 637.7131180522568 16 L 669.7131180522568 0 L 637.7131180522568 -16 L 637.7131180522568 -4 L 124.4889723312753 -4 Z"/><path class="relationship overlay" fill="rgba(255, 255, 255, 0)" stroke="rgba(255, 255, 255, 0)" stroke-width="10px" transform="translate(-884.124210357666,-1975.9859619140625) rotate(-57.45713620002545)" d="M 108.11104817301381 4 L 760.0931046022527 4 L 760.0931046022527 16 L 792.0931046022527 0 L 760.0931046022527 -16 L 760.0931046022527 -4 L 108.11104817301381 -4 Z"/><path class="relationship overlay" fill="rgba(255, 255, 255, 0)" stroke="rgba(255, 255, 255, 0)" stroke-width="10px" transform="translate(532.7003955841064,-2218.6749267578125) rotate(170.2800921650728)" d="M 239.06180623205915 4 L 1297.3484808778007 4 L 1297.3484808778007 16 L 1329.3484808778007 0 L 1297.3484808778007 -16 L 1297.3484808778007 -4 L 239.06180623205915 -4 Z"/><path class="relationship overlay" fill="rgba(255, 255, 255, 0)" stroke="rgba(255, 255, 255, 0)" stroke-width="10px" transform="translate(129.24206161499023,-1353.4073486328125) rotate(-148.43481442159464)" d="M 199.5261633135253 4 L 1049.2229380928138 4 L 1049.2229380928138 16 L 1081.2229380928138 0 L 1049.2229380928138 -16 L 1049.2229380928138 -4 L 199.5261633135253 -4 Z"/><path class="relationship overlay" fill="rgba(255, 255, 255, 0)" stroke="rgba(255, 255, 255, 0)" stroke-width="10px" transform="translate(-1577.4508056640625,-1623.41162109375) rotate(-149.41417623748092)" d="M 124.4889723312753 4 L 503.3221527497906 4 L 503.3221527497906 16 L 535.3221527497906 0 L 503.3221527497906 -16 L 503.3221527497906 -4 L 124.4889723312753 -4 Z"/><path class="relationship overlay" fill="rgba(255, 255, 255, 0)" stroke="rgba(255, 255, 255, 0)" stroke-width="10px" transform="translate(-1577.4508056640625,-1623.41162109375) rotate(155.6464993406657)" d="M 124.4889723312753 4 L 486.0433292554495 4 L 486.0433292554495 16 L 518.0433292554495 0 L 486.0433292554495 -16 L 486.0433292554495 -4 L 124.4889723312753 -4 Z"/><path class="relationship overlay" fill="rgba(255, 255, 255, 0)" stroke="rgba(255, 255, 255, 0)" stroke-width="10px" transform="translate(-1577.4508056640625,-1623.41162109375) rotate(63.32160498110905)" d="M 124.4889723312753 4 L 396.79540501282986 4 L 396.79540501282986 16 L 428.79540501282986 0 L 396.79540501282986 -16 L 396.79540501282986 -4 L 124.4889723312753 -4 Z"/><path class="relationship overlay" fill="rgba(255, 255, 255, 0)" stroke="rgba(255, 255, 255, 0)" stroke-width="10px" transform="translate(532.7003955841064,-2218.6749267578125) rotate(-148.8810868601663)" d="M 239.06180623205915 4 L 883.9467486545955 4 L 883.9467486545955 16 L 915.9467486545955 0 L 883.9467486545955 -16 L 883.9467486545955 -4 L 239.06180623205915 -4 Z"/><path class="relationship overlay" fill="rgba(255, 255, 255, 0)" stroke="rgba(255, 255, 255, 0)" stroke-width="10px" transform="translate(532.7003955841064,-2218.6749267578125) rotate(114.9987727154095)" d="M 239.06180623205915 4 L 723.1814406173526 4 L 723.1814406173526 16 L 755.1814406173526 0 L 723.1814406173526 -16 L 723.1814406173526 -4 L 239.06180623205915 -4 Z"/><circle class="node overlay" r="125.72643228326035" stroke="none" fill="rgba(255, 255, 255, 0)" cx="-2173.958251953125" cy="-1353.4073486328125"/><circle class="node ring" r="130.72643228326035" fill="none" stroke="rgba(255, 255, 255, 0)" stroke-width="10px" cx="-2173.958251953125" cy="-1353.4073486328125"/><path class="relationship overlay" fill="rgba(255, 255, 255, 0)" stroke="rgba(255, 255, 255, 0)" stroke-width="10px" transform="translate(-884.124210357666,-1975.9859619140625) rotate(-114.84389108725277)" d="M 108.11104817301381 4 L 547.0026758793814 4 L 547.0026758793814 16 L 579.0026758793814 0 L 547.0026758793814 -16 L 547.0026758793814 -4 L 108.11104817301381 -4 Z"/><circle class="node overlay" r="157.52538519355736" stroke="none" fill="rgba(255, 255, 255, 0)" cx="-1309.2644653320312" cy="-1089.68115234375"/><circle class="node ring" r="162.52538519355736" fill="none" stroke="rgba(255, 255, 255, 0)" stroke-width="10px" cx="-1309.2644653320312" cy="-1089.68115234375"/><path class="relationship overlay" fill="rgba(255, 255, 255, 0)" stroke="rgba(255, 255, 255, 0)" stroke-width="10px" transform="translate(-884.124210357666,-1975.9859619140625) rotate(-157.55323994058998)" d="M 108.11104817301381 4 L 576.0526503195942 4 L 576.0526503195942 16 L 608.0526503195942 0 L 576.0526503195942 -16 L 576.0526503195942 -4 L 108.11104817301381 -4 Z"/><circle class="node overlay" r="133.14213068880082" stroke="none" fill="rgba(255, 255, 255, 0)" cx="-822.0614624023438" cy="-2841.946044921875"/><circle class="node ring" r="138.14213068880082" fill="none" stroke="rgba(255, 255, 255, 0)" stroke-width="10px" cx="-822.0614624023438" cy="-2841.946044921875"/><path class="relationship overlay" fill="rgba(255, 255, 255, 0)" stroke="rgba(255, 255, 255, 0)" stroke-width="10px" transform="translate(-378.31195068359375,-2768.6429443359375) rotate(-170.6200026258916)" d="M 148.20000598547455 4 L 273.62111114643534 4 L 273.62111114643534 16 L 305.62111114643534 0 L 273.62111114643534 -16 L 273.62111114643534 -4 L 148.20000598547455 -4 Z"/></g></svg>
